<?xml version="1.0" encoding="utf-8" standalone="no"?>
<!DOCTYPE svg PUBLIC "-//W3C//DTD SVG 1.1//EN"
  "http://www.w3.org/Graphics/SVG/1.1/DTD/svg11.dtd">
<svg xmlns:xlink="http://www.w3.org/1999/xlink" width="510.958125pt" height="250.874687pt" viewBox="0 0 510.958125 250.874687" xmlns="http://www.w3.org/2000/svg" version="1.1">
 <metadata>
  <rdf:RDF xmlns:dc="http://purl.org/dc/elements/1.1/" xmlns:cc="http://creativecommons.org/ns#" xmlns:rdf="http://www.w3.org/1999/02/22-rdf-syntax-ns#">
   <cc:Work>
    <dc:type rdf:resource="http://purl.org/dc/dcmitype/StillImage"/>
    <dc:date>2026-09-02T17:01:02.038162</dc:date>
    <dc:format>image/svg+xml</dc:format>
    <dc:creator>
     <cc:Agent>
      <dc:title>Matplotlib v3.10.9, https://matplotlib.org/</dc:title>
     </cc:Agent>
    </dc:creator>
   </cc:Work>
  </rdf:RDF>
 </metadata>
 <defs>
  <style type="text/css">*{stroke-linejoin: round; stroke-linecap: butt}</style>
 </defs>
 <g id="figure_1">
  <g id="patch_1">
   <path d="M 0 250.874687 
L 510.958125 250.874687 
L 510.958125 0 
L 0 0 
z
" style="fill: #fcfcfb"/>
  </g>
  <g id="axes_1">
   <g id="patch_2">
    <path d="M 53.328125 213.318437 
L 503.758125 213.318437 
L 503.758125 20.798437 
L 53.328125 20.798437 
z
" style="fill: #fcfcfb"/>
   </g>
   <g id="matplotlib.axis_1">
    <g id="xtick_1">
     <g id="line2d_1">
      <path d="M 73.802216 213.318437 
L 73.802216 20.798437 
" clip-path="url(#pbdfad286d4)" style="fill: none; stroke: #e6e5e1; stroke-width: 0.6; stroke-linecap: square"/>
     </g>
     <g id="line2d_2">
      <defs>
       <path id="m22bc1cd4de" d="M 0 0 
L 0 3.5 
" style="stroke: #52514e; stroke-width: 0.8"/>
      </defs>
      <g>
       <use xlink:href="#m22bc1cd4de" x="73.802216" y="213.318437" style="fill: #52514e; stroke: #52514e; stroke-width: 0.8"/>
      </g>
     </g>
     <g id="text_1">
      <!-- −0.006 -->
      <g style="fill: #52514e" transform="translate(55.29831 227.916875) scale(0.1 -0.1)">
       <defs>
        <path id="DejaVuSans-2212" d="M 678 2272 
L 4684 2272 
L 4684 1741 
L 678 1741 
L 678 2272 
z
" transform="scale(0.015625)"/>
        <path id="DejaVuSans-30" d="M 2034 4250 
Q 1547 4250 1301 3770 
Q 1056 3291 1056 2328 
Q 1056 1369 1301 889 
Q 1547 409 2034 409 
Q 2525 409 2770 889 
Q 3016 1369 3016 2328 
Q 3016 3291 2770 3770 
Q 2525 4250 2034 4250 
z
M 2034 4750 
Q 2819 4750 3233 4129 
Q 3647 3509 3647 2328 
Q 3647 1150 3233 529 
Q 2819 -91 2034 -91 
Q 1250 -91 836 529 
Q 422 1150 422 2328 
Q 422 3509 836 4129 
Q 1250 4750 2034 4750 
z
" transform="scale(0.015625)"/>
        <path id="DejaVuSans-2e" d="M 684 794 
L 1344 794 
L 1344 0 
L 684 0 
L 684 794 
z
" transform="scale(0.015625)"/>
        <path id="DejaVuSans-36" d="M 2113 2584 
Q 1688 2584 1439 2293 
Q 1191 2003 1191 1497 
Q 1191 994 1439 701 
Q 1688 409 2113 409 
Q 2538 409 2786 701 
Q 3034 994 3034 1497 
Q 3034 2003 2786 2293 
Q 2538 2584 2113 2584 
z
M 3366 4563 
L 3366 3988 
Q 3128 4100 2886 4159 
Q 2644 4219 2406 4219 
Q 1781 4219 1451 3797 
Q 1122 3375 1075 2522 
Q 1259 2794 1537 2939 
Q 1816 3084 2150 3084 
Q 2853 3084 3261 2657 
Q 3669 2231 3669 1497 
Q 3669 778 3244 343 
Q 2819 -91 2113 -91 
Q 1303 -91 875 529 
Q 447 1150 447 2328 
Q 447 3434 972 4092 
Q 1497 4750 2381 4750 
Q 2619 4750 2861 4703 
Q 3103 4656 3366 4563 
z
" transform="scale(0.015625)"/>
       </defs>
       <use xlink:href="#DejaVuSans-2212"/>
       <use xlink:href="#DejaVuSans-30" transform="translate(83.789062 0)"/>
       <use xlink:href="#DejaVuSans-2e" transform="translate(147.412109 0)"/>
       <use xlink:href="#DejaVuSans-30" transform="translate(179.199219 0)"/>
       <use xlink:href="#DejaVuSans-30" transform="translate(242.822266 0)"/>
       <use xlink:href="#DejaVuSans-36" transform="translate(306.445312 0)"/>
      </g>
     </g>
    </g>
    <g id="xtick_2">
     <g id="line2d_3">
      <path d="M 124.987443 213.318437 
L 124.987443 20.798437 
" clip-path="url(#pbdfad286d4)" style="fill: none; stroke: #e6e5e1; stroke-width: 0.6; stroke-linecap: square"/>
     </g>
     <g id="line2d_4">
      <g>
       <use xlink:href="#m22bc1cd4de" x="124.987443" y="213.318437" style="fill: #52514e; stroke: #52514e; stroke-width: 0.8"/>
      </g>
     </g>
     <g id="text_2">
      <!-- −0.004 -->
      <g style="fill: #52514e" transform="translate(106.483537 227.916875) scale(0.1 -0.1)">
       <defs>
        <path id="DejaVuSans-34" d="M 2419 4116 
L 825 1625 
L 2419 1625 
L 2419 4116 
z
M 2253 4666 
L 3047 4666 
L 3047 1625 
L 3713 1625 
L 3713 1100 
L 3047 1100 
L 3047 0 
L 2419 0 
L 2419 1100 
L 313 1100 
L 313 1709 
L 2253 4666 
z
" transform="scale(0.015625)"/>
       </defs>
       <use xlink:href="#DejaVuSans-2212"/>
       <use xlink:href="#DejaVuSans-30" transform="translate(83.789062 0)"/>
       <use xlink:href="#DejaVuSans-2e" transform="translate(147.412109 0)"/>
       <use xlink:href="#DejaVuSans-30" transform="translate(179.199219 0)"/>
       <use xlink:href="#DejaVuSans-30" transform="translate(242.822266 0)"/>
       <use xlink:href="#DejaVuSans-34" transform="translate(306.445312 0)"/>
      </g>
     </g>
    </g>
    <g id="xtick_3">
     <g id="line2d_5">
      <path d="M 176.17267 213.318437 
L 176.17267 20.798437 
" clip-path="url(#pbdfad286d4)" style="fill: none; stroke: #e6e5e1; stroke-width: 0.6; stroke-linecap: square"/>
     </g>
     <g id="line2d_6">
      <g>
       <use xlink:href="#m22bc1cd4de" x="176.17267" y="213.318437" style="fill: #52514e; stroke: #52514e; stroke-width: 0.8"/>
      </g>
     </g>
     <g id="text_3">
      <!-- −0.002 -->
      <g style="fill: #52514e" transform="translate(157.668764 227.916875) scale(0.1 -0.1)">
       <defs>
        <path id="DejaVuSans-32" d="M 1228 531 
L 3431 531 
L 3431 0 
L 469 0 
L 469 531 
Q 828 903 1448 1529 
Q 2069 2156 2228 2338 
Q 2531 2678 2651 2914 
Q 2772 3150 2772 3378 
Q 2772 3750 2511 3984 
Q 2250 4219 1831 4219 
Q 1534 4219 1204 4116 
Q 875 4013 500 3803 
L 500 4441 
Q 881 4594 1212 4672 
Q 1544 4750 1819 4750 
Q 2544 4750 2975 4387 
Q 3406 4025 3406 3419 
Q 3406 3131 3298 2873 
Q 3191 2616 2906 2266 
Q 2828 2175 2409 1742 
Q 1991 1309 1228 531 
z
" transform="scale(0.015625)"/>
       </defs>
       <use xlink:href="#DejaVuSans-2212"/>
       <use xlink:href="#DejaVuSans-30" transform="translate(83.789062 0)"/>
       <use xlink:href="#DejaVuSans-2e" transform="translate(147.412109 0)"/>
       <use xlink:href="#DejaVuSans-30" transform="translate(179.199219 0)"/>
       <use xlink:href="#DejaVuSans-30" transform="translate(242.822266 0)"/>
       <use xlink:href="#DejaVuSans-32" transform="translate(306.445312 0)"/>
      </g>
     </g>
    </g>
    <g id="xtick_4">
     <g id="line2d_7">
      <path d="M 227.357898 213.318437 
L 227.357898 20.798437 
" clip-path="url(#pbdfad286d4)" style="fill: none; stroke: #e6e5e1; stroke-width: 0.6; stroke-linecap: square"/>
     </g>
     <g id="line2d_8">
      <g>
       <use xlink:href="#m22bc1cd4de" x="227.357898" y="213.318437" style="fill: #52514e; stroke: #52514e; stroke-width: 0.8"/>
      </g>
     </g>
     <g id="text_4">
      <!-- 0.000 -->
      <g style="fill: #52514e" transform="translate(213.043835 227.916875) scale(0.1 -0.1)">
       <use xlink:href="#DejaVuSans-30"/>
       <use xlink:href="#DejaVuSans-2e" transform="translate(63.623047 0)"/>
       <use xlink:href="#DejaVuSans-30" transform="translate(95.410156 0)"/>
       <use xlink:href="#DejaVuSans-30" transform="translate(159.033203 0)"/>
       <use xlink:href="#DejaVuSans-30" transform="translate(222.65625 0)"/>
      </g>
     </g>
    </g>
    <g id="xtick_5">
     <g id="line2d_9">
      <path d="M 278.543125 213.318437 
L 278.543125 20.798437 
" clip-path="url(#pbdfad286d4)" style="fill: none; stroke: #e6e5e1; stroke-width: 0.6; stroke-linecap: square"/>
     </g>
     <g id="line2d_10">
      <g>
       <use xlink:href="#m22bc1cd4de" x="278.543125" y="213.318437" style="fill: #52514e; stroke: #52514e; stroke-width: 0.8"/>
      </g>
     </g>
     <g id="text_5">
      <!-- 0.002 -->
      <g style="fill: #52514e" transform="translate(264.229062 227.916875) scale(0.1 -0.1)">
       <use xlink:href="#DejaVuSans-30"/>
       <use xlink:href="#DejaVuSans-2e" transform="translate(63.623047 0)"/>
       <use xlink:href="#DejaVuSans-30" transform="translate(95.410156 0)"/>
       <use xlink:href="#DejaVuSans-30" transform="translate(159.033203 0)"/>
       <use xlink:href="#DejaVuSans-32" transform="translate(222.65625 0)"/>
      </g>
     </g>
    </g>
    <g id="xtick_6">
     <g id="line2d_11">
      <path d="M 329.728352 213.318437 
L 329.728352 20.798437 
" clip-path="url(#pbdfad286d4)" style="fill: none; stroke: #e6e5e1; stroke-width: 0.6; stroke-linecap: square"/>
     </g>
     <g id="line2d_12">
      <g>
       <use xlink:href="#m22bc1cd4de" x="329.728352" y="213.318437" style="fill: #52514e; stroke: #52514e; stroke-width: 0.8"/>
      </g>
     </g>
     <g id="text_6">
      <!-- 0.004 -->
      <g style="fill: #52514e" transform="translate(315.41429 227.916875) scale(0.1 -0.1)">
       <use xlink:href="#DejaVuSans-30"/>
       <use xlink:href="#DejaVuSans-2e" transform="translate(63.623047 0)"/>
       <use xlink:href="#DejaVuSans-30" transform="translate(95.410156 0)"/>
       <use xlink:href="#DejaVuSans-30" transform="translate(159.033203 0)"/>
       <use xlink:href="#DejaVuSans-34" transform="translate(222.65625 0)"/>
      </g>
     </g>
    </g>
    <g id="xtick_7">
     <g id="line2d_13">
      <path d="M 380.91358 213.318437 
L 380.91358 20.798437 
" clip-path="url(#pbdfad286d4)" style="fill: none; stroke: #e6e5e1; stroke-width: 0.6; stroke-linecap: square"/>
     </g>
     <g id="line2d_14">
      <g>
       <use xlink:href="#m22bc1cd4de" x="380.91358" y="213.318437" style="fill: #52514e; stroke: #52514e; stroke-width: 0.8"/>
      </g>
     </g>
     <g id="text_7">
      <!-- 0.006 -->
      <g style="fill: #52514e" transform="translate(366.599517 227.916875) scale(0.1 -0.1)">
       <use xlink:href="#DejaVuSans-30"/>
       <use xlink:href="#DejaVuSans-2e" transform="translate(63.623047 0)"/>
       <use xlink:href="#DejaVuSans-30" transform="translate(95.410156 0)"/>
       <use xlink:href="#DejaVuSans-30" transform="translate(159.033203 0)"/>
       <use xlink:href="#DejaVuSans-36" transform="translate(222.65625 0)"/>
      </g>
     </g>
    </g>
    <g id="xtick_8">
     <g id="line2d_15">
      <path d="M 432.098807 213.318437 
L 432.098807 20.798437 
" clip-path="url(#pbdfad286d4)" style="fill: none; stroke: #e6e5e1; stroke-width: 0.6; stroke-linecap: square"/>
     </g>
     <g id="line2d_16">
      <g>
       <use xlink:href="#m22bc1cd4de" x="432.098807" y="213.318437" style="fill: #52514e; stroke: #52514e; stroke-width: 0.8"/>
      </g>
     </g>
     <g id="text_8">
      <!-- 0.008 -->
      <g style="fill: #52514e" transform="translate(417.784744 227.916875) scale(0.1 -0.1)">
       <defs>
        <path id="DejaVuSans-38" d="M 2034 2216 
Q 1584 2216 1326 1975 
Q 1069 1734 1069 1313 
Q 1069 891 1326 650 
Q 1584 409 2034 409 
Q 2484 409 2743 651 
Q 3003 894 3003 1313 
Q 3003 1734 2745 1975 
Q 2488 2216 2034 2216 
z
M 1403 2484 
Q 997 2584 770 2862 
Q 544 3141 544 3541 
Q 544 4100 942 4425 
Q 1341 4750 2034 4750 
Q 2731 4750 3128 4425 
Q 3525 4100 3525 3541 
Q 3525 3141 3298 2862 
Q 3072 2584 2669 2484 
Q 3125 2378 3379 2068 
Q 3634 1759 3634 1313 
Q 3634 634 3220 271 
Q 2806 -91 2034 -91 
Q 1263 -91 848 271 
Q 434 634 434 1313 
Q 434 1759 690 2068 
Q 947 2378 1403 2484 
z
M 1172 3481 
Q 1172 3119 1398 2916 
Q 1625 2713 2034 2713 
Q 2441 2713 2670 2916 
Q 2900 3119 2900 3481 
Q 2900 3844 2670 4047 
Q 2441 4250 2034 4250 
Q 1625 4250 1398 4047 
Q 1172 3844 1172 3481 
z
" transform="scale(0.015625)"/>
       </defs>
       <use xlink:href="#DejaVuSans-30"/>
       <use xlink:href="#DejaVuSans-2e" transform="translate(63.623047 0)"/>
       <use xlink:href="#DejaVuSans-30" transform="translate(95.410156 0)"/>
       <use xlink:href="#DejaVuSans-30" transform="translate(159.033203 0)"/>
       <use xlink:href="#DejaVuSans-38" transform="translate(222.65625 0)"/>
      </g>
     </g>
    </g>
    <g id="xtick_9">
     <g id="line2d_17">
      <path d="M 483.284034 213.318437 
L 483.284034 20.798437 
" clip-path="url(#pbdfad286d4)" style="fill: none; stroke: #e6e5e1; stroke-width: 0.6; stroke-linecap: square"/>
     </g>
     <g id="line2d_18">
      <g>
       <use xlink:href="#m22bc1cd4de" x="483.284034" y="213.318437" style="fill: #52514e; stroke: #52514e; stroke-width: 0.8"/>
      </g>
     </g>
     <g id="text_9">
      <!-- 0.010 -->
      <g style="fill: #52514e" transform="translate(468.969972 227.916875) scale(0.1 -0.1)">
       <defs>
        <path id="DejaVuSans-31" d="M 794 531 
L 1825 531 
L 1825 4091 
L 703 3866 
L 703 4441 
L 1819 4666 
L 2450 4666 
L 2450 531 
L 3481 531 
L 3481 0 
L 794 0 
L 794 531 
z
" transform="scale(0.015625)"/>
       </defs>
       <use xlink:href="#DejaVuSans-30"/>
       <use xlink:href="#DejaVuSans-2e" transform="translate(63.623047 0)"/>
       <use xlink:href="#DejaVuSans-30" transform="translate(95.410156 0)"/>
       <use xlink:href="#DejaVuSans-31" transform="translate(159.033203 0)"/>
       <use xlink:href="#DejaVuSans-30" transform="translate(222.65625 0)"/>
      </g>
     </g>
    </g>
    <g id="text_10">
     <!-- Δ = mse(claim rewritten out) − mse(intact) -->
     <g style="fill: #0b0b0b" transform="translate(169.642344 241.595) scale(0.1 -0.1)">
      <defs>
       <path id="DejaVuSans-394" d="M 2188 4044 
L 906 525 
L 3472 525 
L 2188 4044 
z
M 50 0 
L 1831 4666 
L 2547 4666 
L 4325 0 
L 50 0 
z
" transform="scale(0.015625)"/>
       <path id="DejaVuSans-20" transform="scale(0.015625)"/>
       <path id="DejaVuSans-3d" d="M 678 2906 
L 4684 2906 
L 4684 2381 
L 678 2381 
L 678 2906 
z
M 678 1631 
L 4684 1631 
L 4684 1100 
L 678 1100 
L 678 1631 
z
" transform="scale(0.015625)"/>
       <path id="DejaVuSans-6d" d="M 3328 2828 
Q 3544 3216 3844 3400 
Q 4144 3584 4550 3584 
Q 5097 3584 5394 3201 
Q 5691 2819 5691 2113 
L 5691 0 
L 5113 0 
L 5113 2094 
Q 5113 2597 4934 2840 
Q 4756 3084 4391 3084 
Q 3944 3084 3684 2787 
Q 3425 2491 3425 1978 
L 3425 0 
L 2847 0 
L 2847 2094 
Q 2847 2600 2669 2842 
Q 2491 3084 2119 3084 
Q 1678 3084 1418 2786 
Q 1159 2488 1159 1978 
L 1159 0 
L 581 0 
L 581 3500 
L 1159 3500 
L 1159 2956 
Q 1356 3278 1631 3431 
Q 1906 3584 2284 3584 
Q 2666 3584 2933 3390 
Q 3200 3197 3328 2828 
z
" transform="scale(0.015625)"/>
       <path id="DejaVuSans-73" d="M 2834 3397 
L 2834 2853 
Q 2591 2978 2328 3040 
Q 2066 3103 1784 3103 
Q 1356 3103 1142 2972 
Q 928 2841 928 2578 
Q 928 2378 1081 2264 
Q 1234 2150 1697 2047 
L 1894 2003 
Q 2506 1872 2764 1633 
Q 3022 1394 3022 966 
Q 3022 478 2636 193 
Q 2250 -91 1575 -91 
Q 1294 -91 989 -36 
Q 684 19 347 128 
L 347 722 
Q 666 556 975 473 
Q 1284 391 1588 391 
Q 1994 391 2212 530 
Q 2431 669 2431 922 
Q 2431 1156 2273 1281 
Q 2116 1406 1581 1522 
L 1381 1569 
Q 847 1681 609 1914 
Q 372 2147 372 2553 
Q 372 3047 722 3315 
Q 1072 3584 1716 3584 
Q 2034 3584 2315 3537 
Q 2597 3491 2834 3397 
z
" transform="scale(0.015625)"/>
       <path id="DejaVuSans-65" d="M 3597 1894 
L 3597 1613 
L 953 1613 
Q 991 1019 1311 708 
Q 1631 397 2203 397 
Q 2534 397 2845 478 
Q 3156 559 3463 722 
L 3463 178 
Q 3153 47 2828 -22 
Q 2503 -91 2169 -91 
Q 1331 -91 842 396 
Q 353 884 353 1716 
Q 353 2575 817 3079 
Q 1281 3584 2069 3584 
Q 2775 3584 3186 3129 
Q 3597 2675 3597 1894 
z
M 3022 2063 
Q 3016 2534 2758 2815 
Q 2500 3097 2075 3097 
Q 1594 3097 1305 2825 
Q 1016 2553 972 2059 
L 3022 2063 
z
" transform="scale(0.015625)"/>
       <path id="DejaVuSans-28" d="M 1984 4856 
Q 1566 4138 1362 3434 
Q 1159 2731 1159 2009 
Q 1159 1288 1364 580 
Q 1569 -128 1984 -844 
L 1484 -844 
Q 1016 -109 783 600 
Q 550 1309 550 2009 
Q 550 2706 781 3412 
Q 1013 4119 1484 4856 
L 1984 4856 
z
" transform="scale(0.015625)"/>
       <path id="DejaVuSans-63" d="M 3122 3366 
L 3122 2828 
Q 2878 2963 2633 3030 
Q 2388 3097 2138 3097 
Q 1578 3097 1268 2742 
Q 959 2388 959 1747 
Q 959 1106 1268 751 
Q 1578 397 2138 397 
Q 2388 397 2633 464 
Q 2878 531 3122 666 
L 3122 134 
Q 2881 22 2623 -34 
Q 2366 -91 2075 -91 
Q 1284 -91 818 406 
Q 353 903 353 1747 
Q 353 2603 823 3093 
Q 1294 3584 2113 3584 
Q 2378 3584 2631 3529 
Q 2884 3475 3122 3366 
z
" transform="scale(0.015625)"/>
       <path id="DejaVuSans-6c" d="M 603 4863 
L 1178 4863 
L 1178 0 
L 603 0 
L 603 4863 
z
" transform="scale(0.015625)"/>
       <path id="DejaVuSans-61" d="M 2194 1759 
Q 1497 1759 1228 1600 
Q 959 1441 959 1056 
Q 959 750 1161 570 
Q 1363 391 1709 391 
Q 2188 391 2477 730 
Q 2766 1069 2766 1631 
L 2766 1759 
L 2194 1759 
z
M 3341 1997 
L 3341 0 
L 2766 0 
L 2766 531 
Q 2569 213 2275 61 
Q 1981 -91 1556 -91 
Q 1019 -91 701 211 
Q 384 513 384 1019 
Q 384 1609 779 1909 
Q 1175 2209 1959 2209 
L 2766 2209 
L 2766 2266 
Q 2766 2663 2505 2880 
Q 2244 3097 1772 3097 
Q 1472 3097 1187 3025 
Q 903 2953 641 2809 
L 641 3341 
Q 956 3463 1253 3523 
Q 1550 3584 1831 3584 
Q 2591 3584 2966 3190 
Q 3341 2797 3341 1997 
z
" transform="scale(0.015625)"/>
       <path id="DejaVuSans-69" d="M 603 3500 
L 1178 3500 
L 1178 0 
L 603 0 
L 603 3500 
z
M 603 4863 
L 1178 4863 
L 1178 4134 
L 603 4134 
L 603 4863 
z
" transform="scale(0.015625)"/>
       <path id="DejaVuSans-72" d="M 2631 2963 
Q 2534 3019 2420 3045 
Q 2306 3072 2169 3072 
Q 1681 3072 1420 2755 
Q 1159 2438 1159 1844 
L 1159 0 
L 581 0 
L 581 3500 
L 1159 3500 
L 1159 2956 
Q 1341 3275 1631 3429 
Q 1922 3584 2338 3584 
Q 2397 3584 2469 3576 
Q 2541 3569 2628 3553 
L 2631 2963 
z
" transform="scale(0.015625)"/>
       <path id="DejaVuSans-77" d="M 269 3500 
L 844 3500 
L 1563 769 
L 2278 3500 
L 2956 3500 
L 3675 769 
L 4391 3500 
L 4966 3500 
L 4050 0 
L 3372 0 
L 2619 2869 
L 1863 0 
L 1184 0 
L 269 3500 
z
" transform="scale(0.015625)"/>
       <path id="DejaVuSans-74" d="M 1172 4494 
L 1172 3500 
L 2356 3500 
L 2356 3053 
L 1172 3053 
L 1172 1153 
Q 1172 725 1289 603 
Q 1406 481 1766 481 
L 2356 481 
L 2356 0 
L 1766 0 
Q 1100 0 847 248 
Q 594 497 594 1153 
L 594 3053 
L 172 3053 
L 172 3500 
L 594 3500 
L 594 4494 
L 1172 4494 
z
" transform="scale(0.015625)"/>
       <path id="DejaVuSans-6e" d="M 3513 2113 
L 3513 0 
L 2938 0 
L 2938 2094 
Q 2938 2591 2744 2837 
Q 2550 3084 2163 3084 
Q 1697 3084 1428 2787 
Q 1159 2491 1159 1978 
L 1159 0 
L 581 0 
L 581 3500 
L 1159 3500 
L 1159 2956 
Q 1366 3272 1645 3428 
Q 1925 3584 2291 3584 
Q 2894 3584 3203 3211 
Q 3513 2838 3513 2113 
z
" transform="scale(0.015625)"/>
       <path id="DejaVuSans-6f" d="M 1959 3097 
Q 1497 3097 1228 2736 
Q 959 2375 959 1747 
Q 959 1119 1226 758 
Q 1494 397 1959 397 
Q 2419 397 2687 759 
Q 2956 1122 2956 1747 
Q 2956 2369 2687 2733 
Q 2419 3097 1959 3097 
z
M 1959 3584 
Q 2709 3584 3137 3096 
Q 3566 2609 3566 1747 
Q 3566 888 3137 398 
Q 2709 -91 1959 -91 
Q 1206 -91 779 398 
Q 353 888 353 1747 
Q 353 2609 779 3096 
Q 1206 3584 1959 3584 
z
" transform="scale(0.015625)"/>
       <path id="DejaVuSans-75" d="M 544 1381 
L 544 3500 
L 1119 3500 
L 1119 1403 
Q 1119 906 1312 657 
Q 1506 409 1894 409 
Q 2359 409 2629 706 
Q 2900 1003 2900 1516 
L 2900 3500 
L 3475 3500 
L 3475 0 
L 2900 0 
L 2900 538 
Q 2691 219 2414 64 
Q 2138 -91 1772 -91 
Q 1169 -91 856 284 
Q 544 659 544 1381 
z
M 1991 3584 
L 1991 3584 
z
" transform="scale(0.015625)"/>
       <path id="DejaVuSans-29" d="M 513 4856 
L 1013 4856 
Q 1481 4119 1714 3412 
Q 1947 2706 1947 2009 
Q 1947 1309 1714 600 
Q 1481 -109 1013 -844 
L 513 -844 
Q 928 -128 1133 580 
Q 1338 1288 1338 2009 
Q 1338 2731 1133 3434 
Q 928 4138 513 4856 
z
" transform="scale(0.015625)"/>
      </defs>
      <use xlink:href="#DejaVuSans-394"/>
      <use xlink:href="#DejaVuSans-20" transform="translate(68.408203 0)"/>
      <use xlink:href="#DejaVuSans-3d" transform="translate(100.195312 0)"/>
      <use xlink:href="#DejaVuSans-20" transform="translate(183.984375 0)"/>
      <use xlink:href="#DejaVuSans-6d" transform="translate(215.771484 0)"/>
      <use xlink:href="#DejaVuSans-73" transform="translate(313.183594 0)"/>
      <use xlink:href="#DejaVuSans-65" transform="translate(365.283203 0)"/>
      <use xlink:href="#DejaVuSans-28" transform="translate(426.806641 0)"/>
      <use xlink:href="#DejaVuSans-63" transform="translate(465.820312 0)"/>
      <use xlink:href="#DejaVuSans-6c" transform="translate(520.800781 0)"/>
      <use xlink:href="#DejaVuSans-61" transform="translate(548.583984 0)"/>
      <use xlink:href="#DejaVuSans-69" transform="translate(609.863281 0)"/>
      <use xlink:href="#DejaVuSans-6d" transform="translate(637.646484 0)"/>
      <use xlink:href="#DejaVuSans-20" transform="translate(735.058594 0)"/>
      <use xlink:href="#DejaVuSans-72" transform="translate(766.845703 0)"/>
      <use xlink:href="#DejaVuSans-65" transform="translate(805.708984 0)"/>
      <use xlink:href="#DejaVuSans-77" transform="translate(867.232422 0)"/>
      <use xlink:href="#DejaVuSans-72" transform="translate(949.019531 0)"/>
      <use xlink:href="#DejaVuSans-69" transform="translate(990.132812 0)"/>
      <use xlink:href="#DejaVuSans-74" transform="translate(1017.916016 0)"/>
      <use xlink:href="#DejaVuSans-74" transform="translate(1057.125 0)"/>
      <use xlink:href="#DejaVuSans-65" transform="translate(1096.333984 0)"/>
      <use xlink:href="#DejaVuSans-6e" transform="translate(1157.857422 0)"/>
      <use xlink:href="#DejaVuSans-20" transform="translate(1221.236328 0)"/>
      <use xlink:href="#DejaVuSans-6f" transform="translate(1253.023438 0)"/>
      <use xlink:href="#DejaVuSans-75" transform="translate(1314.205078 0)"/>
      <use xlink:href="#DejaVuSans-74" transform="translate(1377.583984 0)"/>
      <use xlink:href="#DejaVuSans-29" transform="translate(1416.792969 0)"/>
      <use xlink:href="#DejaVuSans-20" transform="translate(1455.806641 0)"/>
      <use xlink:href="#DejaVuSans-2212" transform="translate(1487.59375 0)"/>
      <use xlink:href="#DejaVuSans-20" transform="translate(1571.382812 0)"/>
      <use xlink:href="#DejaVuSans-6d" transform="translate(1603.169922 0)"/>
      <use xlink:href="#DejaVuSans-73" transform="translate(1700.582031 0)"/>
      <use xlink:href="#DejaVuSans-65" transform="translate(1752.681641 0)"/>
      <use xlink:href="#DejaVuSans-28" transform="translate(1814.205078 0)"/>
      <use xlink:href="#DejaVuSans-69" transform="translate(1853.21875 0)"/>
      <use xlink:href="#DejaVuSans-6e" transform="translate(1881.001953 0)"/>
      <use xlink:href="#DejaVuSans-74" transform="translate(1944.380859 0)"/>
      <use xlink:href="#DejaVuSans-61" transform="translate(1983.589844 0)"/>
      <use xlink:href="#DejaVuSans-63" transform="translate(2044.869141 0)"/>
      <use xlink:href="#DejaVuSans-74" transform="translate(2099.849609 0)"/>
      <use xlink:href="#DejaVuSans-29" transform="translate(2139.058594 0)"/>
     </g>
    </g>
   </g>
   <g id="matplotlib.axis_2">
    <g id="ytick_1">
     <g id="line2d_19">
      <path d="M 53.328125 213.318437 
L 503.758125 213.318437 
" clip-path="url(#pbdfad286d4)" style="fill: none; stroke: #e6e5e1; stroke-width: 0.6; stroke-linecap: square"/>
     </g>
     <g id="line2d_20">
      <defs>
       <path id="m955b74d224" d="M 0 0 
L -3.5 0 
" style="stroke: #52514e; stroke-width: 0.8"/>
      </defs>
      <g>
       <use xlink:href="#m955b74d224" x="53.328125" y="213.318437" style="fill: #52514e; stroke: #52514e; stroke-width: 0.8"/>
      </g>
     </g>
     <g id="text_11">
      <!-- 0 -->
      <g style="fill: #52514e" transform="translate(39.965625 217.117656) scale(0.1 -0.1)">
       <use xlink:href="#DejaVuSans-30"/>
      </g>
     </g>
    </g>
    <g id="ytick_2">
     <g id="line2d_21">
      <path d="M 53.328125 176.541773 
L 503.758125 176.541773 
" clip-path="url(#pbdfad286d4)" style="fill: none; stroke: #e6e5e1; stroke-width: 0.6; stroke-linecap: square"/>
     </g>
     <g id="line2d_22">
      <g>
       <use xlink:href="#m955b74d224" x="53.328125" y="176.541773" style="fill: #52514e; stroke: #52514e; stroke-width: 0.8"/>
      </g>
     </g>
     <g id="text_12">
      <!-- 200 -->
      <g style="fill: #52514e" transform="translate(27.240625 180.340991) scale(0.1 -0.1)">
       <use xlink:href="#DejaVuSans-32"/>
       <use xlink:href="#DejaVuSans-30" transform="translate(63.623047 0)"/>
       <use xlink:href="#DejaVuSans-30" transform="translate(127.246094 0)"/>
      </g>
     </g>
    </g>
    <g id="ytick_3">
     <g id="line2d_23">
      <path d="M 53.328125 139.765108 
L 503.758125 139.765108 
" clip-path="url(#pbdfad286d4)" style="fill: none; stroke: #e6e5e1; stroke-width: 0.6; stroke-linecap: square"/>
     </g>
     <g id="line2d_24">
      <g>
       <use xlink:href="#m955b74d224" x="53.328125" y="139.765108" style="fill: #52514e; stroke: #52514e; stroke-width: 0.8"/>
      </g>
     </g>
     <g id="text_13">
      <!-- 400 -->
      <g style="fill: #52514e" transform="translate(27.240625 143.564327) scale(0.1 -0.1)">
       <use xlink:href="#DejaVuSans-34"/>
       <use xlink:href="#DejaVuSans-30" transform="translate(63.623047 0)"/>
       <use xlink:href="#DejaVuSans-30" transform="translate(127.246094 0)"/>
      </g>
     </g>
    </g>
    <g id="ytick_4">
     <g id="line2d_25">
      <path d="M 53.328125 102.988443 
L 503.758125 102.988443 
" clip-path="url(#pbdfad286d4)" style="fill: none; stroke: #e6e5e1; stroke-width: 0.6; stroke-linecap: square"/>
     </g>
     <g id="line2d_26">
      <g>
       <use xlink:href="#m955b74d224" x="53.328125" y="102.988443" style="fill: #52514e; stroke: #52514e; stroke-width: 0.8"/>
      </g>
     </g>
     <g id="text_14">
      <!-- 600 -->
      <g style="fill: #52514e" transform="translate(27.240625 106.787662) scale(0.1 -0.1)">
       <use xlink:href="#DejaVuSans-36"/>
       <use xlink:href="#DejaVuSans-30" transform="translate(63.623047 0)"/>
       <use xlink:href="#DejaVuSans-30" transform="translate(127.246094 0)"/>
      </g>
     </g>
    </g>
    <g id="ytick_5">
     <g id="line2d_27">
      <path d="M 53.328125 66.211778 
L 503.758125 66.211778 
" clip-path="url(#pbdfad286d4)" style="fill: none; stroke: #e6e5e1; stroke-width: 0.6; stroke-linecap: square"/>
     </g>
     <g id="line2d_28">
      <g>
       <use xlink:href="#m955b74d224" x="53.328125" y="66.211778" style="fill: #52514e; stroke: #52514e; stroke-width: 0.8"/>
      </g>
     </g>
     <g id="text_15">
      <!-- 800 -->
      <g style="fill: #52514e" transform="translate(27.240625 70.010997) scale(0.1 -0.1)">
       <use xlink:href="#DejaVuSans-38"/>
       <use xlink:href="#DejaVuSans-30" transform="translate(63.623047 0)"/>
       <use xlink:href="#DejaVuSans-30" transform="translate(127.246094 0)"/>
      </g>
     </g>
    </g>
    <g id="ytick_6">
     <g id="line2d_29">
      <path d="M 53.328125 29.435113 
L 503.758125 29.435113 
" clip-path="url(#pbdfad286d4)" style="fill: none; stroke: #e6e5e1; stroke-width: 0.6; stroke-linecap: square"/>
     </g>
     <g id="line2d_30">
      <g>
       <use xlink:href="#m955b74d224" x="53.328125" y="29.435113" style="fill: #52514e; stroke: #52514e; stroke-width: 0.8"/>
      </g>
     </g>
     <g id="text_16">
      <!-- 1000 -->
      <g style="fill: #52514e" transform="translate(20.878125 33.234332) scale(0.1 -0.1)">
       <use xlink:href="#DejaVuSans-31"/>
       <use xlink:href="#DejaVuSans-30" transform="translate(63.623047 0)"/>
       <use xlink:href="#DejaVuSans-30" transform="translate(127.246094 0)"/>
       <use xlink:href="#DejaVuSans-30" transform="translate(190.869141 0)"/>
      </g>
     </g>
    </g>
    <g id="text_17">
     <!-- density -->
     <g style="fill: #0b0b0b" transform="translate(14.798438 135.39125) rotate(-90) scale(0.1 -0.1)">
      <defs>
       <path id="DejaVuSans-64" d="M 2906 2969 
L 2906 4863 
L 3481 4863 
L 3481 0 
L 2906 0 
L 2906 525 
Q 2725 213 2448 61 
Q 2172 -91 1784 -91 
Q 1150 -91 751 415 
Q 353 922 353 1747 
Q 353 2572 751 3078 
Q 1150 3584 1784 3584 
Q 2172 3584 2448 3432 
Q 2725 3281 2906 2969 
z
M 947 1747 
Q 947 1113 1208 752 
Q 1469 391 1925 391 
Q 2381 391 2643 752 
Q 2906 1113 2906 1747 
Q 2906 2381 2643 2742 
Q 2381 3103 1925 3103 
Q 1469 3103 1208 2742 
Q 947 2381 947 1747 
z
" transform="scale(0.015625)"/>
       <path id="DejaVuSans-79" d="M 2059 -325 
Q 1816 -950 1584 -1140 
Q 1353 -1331 966 -1331 
L 506 -1331 
L 506 -850 
L 844 -850 
Q 1081 -850 1212 -737 
Q 1344 -625 1503 -206 
L 1606 56 
L 191 3500 
L 800 3500 
L 1894 763 
L 2988 3500 
L 3597 3500 
L 2059 -325 
z
" transform="scale(0.015625)"/>
      </defs>
      <use xlink:href="#DejaVuSans-64"/>
      <use xlink:href="#DejaVuSans-65" transform="translate(63.476562 0)"/>
      <use xlink:href="#DejaVuSans-6e" transform="translate(125 0)"/>
      <use xlink:href="#DejaVuSans-73" transform="translate(188.378906 0)"/>
      <use xlink:href="#DejaVuSans-69" transform="translate(240.478516 0)"/>
      <use xlink:href="#DejaVuSans-74" transform="translate(268.261719 0)"/>
      <use xlink:href="#DejaVuSans-79" transform="translate(307.470703 0)"/>
     </g>
    </g>
   </g>
   <g id="patch_3">
    <path d="M 73.802216 213.318437 
L 80.200369 213.318437 
L 80.200369 213.318437 
L 73.802216 213.318437 
z
" clip-path="url(#pbdfad286d4)" style="fill: #8a8987; opacity: 0.55"/>
   </g>
   <g id="patch_4">
    <path d="M 80.200369 213.318437 
L 86.598523 213.318437 
L 86.598523 213.318437 
L 80.200369 213.318437 
z
" clip-path="url(#pbdfad286d4)" style="fill: #8a8987; opacity: 0.55"/>
   </g>
   <g id="patch_5">
    <path d="M 86.598523 213.318437 
L 92.996676 213.318437 
L 92.996676 213.318437 
L 86.598523 213.318437 
z
" clip-path="url(#pbdfad286d4)" style="fill: #8a8987; opacity: 0.55"/>
   </g>
   <g id="patch_6">
    <path d="M 92.996676 213.318437 
L 99.39483 213.318437 
L 99.39483 213.318437 
L 92.996676 213.318437 
z
" clip-path="url(#pbdfad286d4)" style="fill: #8a8987; opacity: 0.55"/>
   </g>
   <g id="patch_7">
    <path d="M 99.39483 213.318437 
L 105.792983 213.318437 
L 105.792983 213.318437 
L 99.39483 213.318437 
z
" clip-path="url(#pbdfad286d4)" style="fill: #8a8987; opacity: 0.55"/>
   </g>
   <g id="patch_8">
    <path d="M 105.792983 213.318437 
L 112.191136 213.318437 
L 112.191136 213.318437 
L 105.792983 213.318437 
z
" clip-path="url(#pbdfad286d4)" style="fill: #8a8987; opacity: 0.55"/>
   </g>
   <g id="patch_9">
    <path d="M 112.191136 213.318437 
L 118.58929 213.318437 
L 118.58929 213.318437 
L 112.191136 213.318437 
z
" clip-path="url(#pbdfad286d4)" style="fill: #8a8987; opacity: 0.55"/>
   </g>
   <g id="patch_10">
    <path d="M 118.58929 213.318437 
L 124.987443 213.318437 
L 124.987443 213.318437 
L 118.58929 213.318437 
z
" clip-path="url(#pbdfad286d4)" style="fill: #8a8987; opacity: 0.55"/>
   </g>
   <g id="patch_11">
    <path d="M 124.987443 213.318437 
L 131.385597 213.318437 
L 131.385597 213.318437 
L 124.987443 213.318437 
z
" clip-path="url(#pbdfad286d4)" style="fill: #8a8987; opacity: 0.55"/>
   </g>
   <g id="patch_12">
    <path d="M 131.385597 213.318437 
L 137.78375 213.318437 
L 137.78375 213.318437 
L 131.385597 213.318437 
z
" clip-path="url(#pbdfad286d4)" style="fill: #8a8987; opacity: 0.55"/>
   </g>
   <g id="patch_13">
    <path d="M 137.78375 213.318437 
L 144.181903 213.318437 
L 144.181903 213.318437 
L 137.78375 213.318437 
z
" clip-path="url(#pbdfad286d4)" style="fill: #8a8987; opacity: 0.55"/>
   </g>
   <g id="patch_14">
    <path d="M 144.181903 213.318437 
L 150.580057 213.318437 
L 150.580057 213.318437 
L 144.181903 213.318437 
z
" clip-path="url(#pbdfad286d4)" style="fill: #8a8987; opacity: 0.55"/>
   </g>
   <g id="patch_15">
    <path d="M 150.580057 213.318437 
L 156.97821 213.318437 
L 156.97821 213.318437 
L 150.580057 213.318437 
z
" clip-path="url(#pbdfad286d4)" style="fill: #8a8987; opacity: 0.55"/>
   </g>
   <g id="patch_16">
    <path d="M 156.97821 213.318437 
L 163.376364 213.318437 
L 163.376364 213.318437 
L 156.97821 213.318437 
z
" clip-path="url(#pbdfad286d4)" style="fill: #8a8987; opacity: 0.55"/>
   </g>
   <g id="patch_17">
    <path d="M 163.376364 213.318437 
L 169.774517 213.318437 
L 169.774517 213.318437 
L 163.376364 213.318437 
z
" clip-path="url(#pbdfad286d4)" style="fill: #8a8987; opacity: 0.55"/>
   </g>
   <g id="patch_18">
    <path d="M 169.774517 213.318437 
L 176.17267 213.318437 
L 176.17267 212.610513 
L 169.774517 212.610513 
z
" clip-path="url(#pbdfad286d4)" style="fill: #8a8987; opacity: 0.55"/>
   </g>
   <g id="patch_19">
    <path d="M 176.17267 213.318437 
L 182.570824 213.318437 
L 182.570824 213.318437 
L 176.17267 213.318437 
z
" clip-path="url(#pbdfad286d4)" style="fill: #8a8987; opacity: 0.55"/>
   </g>
   <g id="patch_20">
    <path d="M 182.570824 213.318437 
L 188.968977 213.318437 
L 188.968977 213.318437 
L 182.570824 213.318437 
z
" clip-path="url(#pbdfad286d4)" style="fill: #8a8987; opacity: 0.55"/>
   </g>
   <g id="patch_21">
    <path d="M 188.968977 213.318437 
L 195.367131 213.318437 
L 195.367131 211.902589 
L 188.968977 211.902589 
z
" clip-path="url(#pbdfad286d4)" style="fill: #8a8987; opacity: 0.55"/>
   </g>
   <g id="patch_22">
    <path d="M 195.367131 213.318437 
L 201.765284 213.318437 
L 201.765284 211.194665 
L 195.367131 211.194665 
z
" clip-path="url(#pbdfad286d4)" style="fill: #8a8987; opacity: 0.55"/>
   </g>
   <g id="patch_23">
    <path d="M 201.765284 213.318437 
L 208.163437 213.318437 
L 208.163437 208.362968 
L 201.765284 208.362968 
z
" clip-path="url(#pbdfad286d4)" style="fill: #8a8987; opacity: 0.55"/>
   </g>
   <g id="patch_24">
    <path d="M 208.163437 213.318437 
L 214.561591 213.318437 
L 214.561591 203.407498 
L 208.163437 203.407498 
z
" clip-path="url(#pbdfad286d4)" style="fill: #8a8987; opacity: 0.55"/>
   </g>
   <g id="patch_25">
    <path d="M 214.561591 213.318437 
L 220.959744 213.318437 
L 220.959744 168.011285 
L 214.561591 168.011285 
z
" clip-path="url(#pbdfad286d4)" style="fill: #8a8987; opacity: 0.55"/>
   </g>
   <g id="patch_26">
    <path d="M 220.959744 213.318437 
L 227.357898 213.318437 
L 227.357898 74.565284 
L 220.959744 74.565284 
z
" clip-path="url(#pbdfad286d4)" style="fill: #8a8987; opacity: 0.55"/>
   </g>
   <g id="patch_27">
    <path d="M 227.357898 213.318437 
L 233.756051 213.318437 
L 233.756051 29.966057 
L 227.357898 29.966057 
z
" clip-path="url(#pbdfad286d4)" style="fill: #8a8987; opacity: 0.55"/>
   </g>
   <g id="patch_28">
    <path d="M 233.756051 213.318437 
L 240.154205 213.318437 
L 240.154205 121.288285 
L 233.756051 121.288285 
z
" clip-path="url(#pbdfad286d4)" style="fill: #8a8987; opacity: 0.55"/>
   </g>
   <g id="patch_29">
    <path d="M 240.154205 213.318437 
L 246.552358 213.318437 
L 246.552358 141.818088 
L 240.154205 141.818088 
z
" clip-path="url(#pbdfad286d4)" style="fill: #8a8987; opacity: 0.55"/>
   </g>
   <g id="patch_30">
    <path d="M 246.552358 213.318437 
L 252.950511 213.318437 
L 252.950511 168.71921 
L 246.552358 168.71921 
z
" clip-path="url(#pbdfad286d4)" style="fill: #8a8987; opacity: 0.55"/>
   </g>
   <g id="patch_31">
    <path d="M 252.950511 213.318437 
L 259.348665 213.318437 
L 259.348665 194.204483 
L 252.950511 194.204483 
z
" clip-path="url(#pbdfad286d4)" style="fill: #8a8987; opacity: 0.55"/>
   </g>
   <g id="patch_32">
    <path d="M 259.348665 213.318437 
L 265.746818 213.318437 
L 265.746818 197.744104 
L 259.348665 197.744104 
z
" clip-path="url(#pbdfad286d4)" style="fill: #8a8987; opacity: 0.55"/>
   </g>
   <g id="patch_33">
    <path d="M 265.746818 213.318437 
L 272.144972 213.318437 
L 272.144972 199.867877 
L 265.746818 199.867877 
z
" clip-path="url(#pbdfad286d4)" style="fill: #8a8987; opacity: 0.55"/>
   </g>
   <g id="patch_34">
    <path d="M 272.144972 213.318437 
L 278.543125 213.318437 
L 278.543125 206.947119 
L 272.144972 206.947119 
z
" clip-path="url(#pbdfad286d4)" style="fill: #8a8987; opacity: 0.55"/>
   </g>
   <g id="patch_35">
    <path d="M 278.543125 213.318437 
L 284.941278 213.318437 
L 284.941278 202.699574 
L 278.543125 202.699574 
z
" clip-path="url(#pbdfad286d4)" style="fill: #8a8987; opacity: 0.55"/>
   </g>
   <g id="patch_36">
    <path d="M 284.941278 213.318437 
L 291.339432 213.318437 
L 291.339432 199.159952 
L 284.941278 199.159952 
z
" clip-path="url(#pbdfad286d4)" style="fill: #8a8987; opacity: 0.55"/>
   </g>
   <g id="patch_37">
    <path d="M 291.339432 213.318437 
L 297.737585 213.318437 
L 297.737585 207.655043 
L 291.339432 207.655043 
z
" clip-path="url(#pbdfad286d4)" style="fill: #8a8987; opacity: 0.55"/>
   </g>
   <g id="patch_38">
    <path d="M 297.737585 213.318437 
L 304.135739 213.318437 
L 304.135739 209.070892 
L 297.737585 209.070892 
z
" clip-path="url(#pbdfad286d4)" style="fill: #8a8987; opacity: 0.55"/>
   </g>
   <g id="patch_39">
    <path d="M 304.135739 213.318437 
L 310.533892 213.318437 
L 310.533892 209.070892 
L 304.135739 209.070892 
z
" clip-path="url(#pbdfad286d4)" style="fill: #8a8987; opacity: 0.55"/>
   </g>
   <g id="patch_40">
    <path d="M 310.533892 213.318437 
L 316.932045 213.318437 
L 316.932045 210.48674 
L 310.533892 210.48674 
z
" clip-path="url(#pbdfad286d4)" style="fill: #8a8987; opacity: 0.55"/>
   </g>
   <g id="patch_41">
    <path d="M 316.932045 213.318437 
L 323.330199 213.318437 
L 323.330199 211.194665 
L 316.932045 211.194665 
z
" clip-path="url(#pbdfad286d4)" style="fill: #8a8987; opacity: 0.55"/>
   </g>
   <g id="patch_42">
    <path d="M 323.330199 213.318437 
L 329.728352 213.318437 
L 329.728352 210.48674 
L 323.330199 210.48674 
z
" clip-path="url(#pbdfad286d4)" style="fill: #8a8987; opacity: 0.55"/>
   </g>
   <g id="patch_43">
    <path d="M 329.728352 213.318437 
L 336.126506 213.318437 
L 336.126506 207.655043 
L 329.728352 207.655043 
z
" clip-path="url(#pbdfad286d4)" style="fill: #8a8987; opacity: 0.55"/>
   </g>
   <g id="patch_44">
    <path d="M 336.126506 213.318437 
L 342.524659 213.318437 
L 342.524659 209.070892 
L 336.126506 209.070892 
z
" clip-path="url(#pbdfad286d4)" style="fill: #8a8987; opacity: 0.55"/>
   </g>
   <g id="patch_45">
    <path d="M 342.524659 213.318437 
L 348.922812 213.318437 
L 348.922812 211.902589 
L 342.524659 211.902589 
z
" clip-path="url(#pbdfad286d4)" style="fill: #8a8987; opacity: 0.55"/>
   </g>
   <g id="patch_46">
    <path d="M 348.922812 213.318437 
L 355.320966 213.318437 
L 355.320966 209.778816 
L 348.922812 209.778816 
z
" clip-path="url(#pbdfad286d4)" style="fill: #8a8987; opacity: 0.55"/>
   </g>
   <g id="patch_47">
    <path d="M 355.320966 213.318437 
L 361.719119 213.318437 
L 361.719119 213.318437 
L 355.320966 213.318437 
z
" clip-path="url(#pbdfad286d4)" style="fill: #8a8987; opacity: 0.55"/>
   </g>
   <g id="patch_48">
    <path d="M 361.719119 213.318437 
L 368.117273 213.318437 
L 368.117273 210.48674 
L 361.719119 210.48674 
z
" clip-path="url(#pbdfad286d4)" style="fill: #8a8987; opacity: 0.55"/>
   </g>
   <g id="patch_49">
    <path d="M 368.117273 213.318437 
L 374.515426 213.318437 
L 374.515426 212.610513 
L 368.117273 212.610513 
z
" clip-path="url(#pbdfad286d4)" style="fill: #8a8987; opacity: 0.55"/>
   </g>
   <g id="patch_50">
    <path d="M 374.515426 213.318437 
L 380.91358 213.318437 
L 380.91358 209.778816 
L 374.515426 209.778816 
z
" clip-path="url(#pbdfad286d4)" style="fill: #8a8987; opacity: 0.55"/>
   </g>
   <g id="patch_51">
    <path d="M 380.91358 213.318437 
L 387.311733 213.318437 
L 387.311733 211.902589 
L 380.91358 211.902589 
z
" clip-path="url(#pbdfad286d4)" style="fill: #8a8987; opacity: 0.55"/>
   </g>
   <g id="patch_52">
    <path d="M 387.311733 213.318437 
L 393.709886 213.318437 
L 393.709886 211.902589 
L 387.311733 211.902589 
z
" clip-path="url(#pbdfad286d4)" style="fill: #8a8987; opacity: 0.55"/>
   </g>
   <g id="patch_53">
    <path d="M 393.709886 213.318437 
L 400.10804 213.318437 
L 400.10804 211.194665 
L 393.709886 211.194665 
z
" clip-path="url(#pbdfad286d4)" style="fill: #8a8987; opacity: 0.55"/>
   </g>
   <g id="patch_54">
    <path d="M 400.10804 213.318437 
L 406.506193 213.318437 
L 406.506193 211.902589 
L 400.10804 211.902589 
z
" clip-path="url(#pbdfad286d4)" style="fill: #8a8987; opacity: 0.55"/>
   </g>
   <g id="patch_55">
    <path d="M 406.506193 213.318437 
L 412.904347 213.318437 
L 412.904347 211.902589 
L 406.506193 211.902589 
z
" clip-path="url(#pbdfad286d4)" style="fill: #8a8987; opacity: 0.55"/>
   </g>
   <g id="patch_56">
    <path d="M 412.904347 213.318437 
L 419.3025 213.318437 
L 419.3025 212.610513 
L 412.904347 212.610513 
z
" clip-path="url(#pbdfad286d4)" style="fill: #8a8987; opacity: 0.55"/>
   </g>
   <g id="patch_57">
    <path d="M 419.3025 213.318437 
L 425.700653 213.318437 
L 425.700653 213.318437 
L 419.3025 213.318437 
z
" clip-path="url(#pbdfad286d4)" style="fill: #8a8987; opacity: 0.55"/>
   </g>
   <g id="patch_58">
    <path d="M 425.700653 213.318437 
L 432.098807 213.318437 
L 432.098807 212.610513 
L 425.700653 212.610513 
z
" clip-path="url(#pbdfad286d4)" style="fill: #8a8987; opacity: 0.55"/>
   </g>
   <g id="patch_59">
    <path d="M 432.098807 213.318437 
L 438.49696 213.318437 
L 438.49696 211.194665 
L 432.098807 211.194665 
z
" clip-path="url(#pbdfad286d4)" style="fill: #8a8987; opacity: 0.55"/>
   </g>
   <g id="patch_60">
    <path d="M 438.49696 213.318437 
L 444.895114 213.318437 
L 444.895114 212.610513 
L 438.49696 212.610513 
z
" clip-path="url(#pbdfad286d4)" style="fill: #8a8987; opacity: 0.55"/>
   </g>
   <g id="patch_61">
    <path d="M 444.895114 213.318437 
L 451.293267 213.318437 
L 451.293267 211.902589 
L 444.895114 211.902589 
z
" clip-path="url(#pbdfad286d4)" style="fill: #8a8987; opacity: 0.55"/>
   </g>
   <g id="patch_62">
    <path d="M 451.293267 213.318437 
L 457.69142 213.318437 
L 457.69142 211.902589 
L 451.293267 211.902589 
z
" clip-path="url(#pbdfad286d4)" style="fill: #8a8987; opacity: 0.55"/>
   </g>
   <g id="patch_63">
    <path d="M 457.69142 213.318437 
L 464.089574 213.318437 
L 464.089574 212.610513 
L 457.69142 212.610513 
z
" clip-path="url(#pbdfad286d4)" style="fill: #8a8987; opacity: 0.55"/>
   </g>
   <g id="patch_64">
    <path d="M 464.089574 213.318437 
L 470.487727 213.318437 
L 470.487727 212.610513 
L 464.089574 212.610513 
z
" clip-path="url(#pbdfad286d4)" style="fill: #8a8987; opacity: 0.55"/>
   </g>
   <g id="patch_65">
    <path d="M 470.487727 213.318437 
L 476.885881 213.318437 
L 476.885881 212.610513 
L 470.487727 212.610513 
z
" clip-path="url(#pbdfad286d4)" style="fill: #8a8987; opacity: 0.55"/>
   </g>
   <g id="patch_66">
    <path d="M 476.885881 213.318437 
L 483.284034 213.318437 
L 483.284034 212.610513 
L 476.885881 212.610513 
z
" clip-path="url(#pbdfad286d4)" style="fill: #8a8987; opacity: 0.55"/>
   </g>
   <g id="patch_67">
    <path d="M 73.802216 213.318437 
L 80.200369 213.318437 
L 80.200369 213.318437 
L 73.802216 213.318437 
z
" clip-path="url(#pbdfad286d4)" style="fill: #2a78d6; opacity: 0.85"/>
   </g>
   <g id="patch_68">
    <path d="M 80.200369 213.318437 
L 86.598523 213.318437 
L 86.598523 213.318437 
L 80.200369 213.318437 
z
" clip-path="url(#pbdfad286d4)" style="fill: #2a78d6; opacity: 0.85"/>
   </g>
   <g id="patch_69">
    <path d="M 86.598523 213.318437 
L 92.996676 213.318437 
L 92.996676 213.318437 
L 86.598523 213.318437 
z
" clip-path="url(#pbdfad286d4)" style="fill: #2a78d6; opacity: 0.85"/>
   </g>
   <g id="patch_70">
    <path d="M 92.996676 213.318437 
L 99.39483 213.318437 
L 99.39483 213.318437 
L 92.996676 213.318437 
z
" clip-path="url(#pbdfad286d4)" style="fill: #2a78d6; opacity: 0.85"/>
   </g>
   <g id="patch_71">
    <path d="M 99.39483 213.318437 
L 105.792983 213.318437 
L 105.792983 212.560937 
L 99.39483 212.560937 
z
" clip-path="url(#pbdfad286d4)" style="fill: #2a78d6; opacity: 0.85"/>
   </g>
   <g id="patch_72">
    <path d="M 105.792983 213.318437 
L 112.191136 213.318437 
L 112.191136 212.560937 
L 105.792983 212.560937 
z
" clip-path="url(#pbdfad286d4)" style="fill: #2a78d6; opacity: 0.85"/>
   </g>
   <g id="patch_73">
    <path d="M 112.191136 213.318437 
L 118.58929 213.318437 
L 118.58929 212.560937 
L 112.191136 212.560937 
z
" clip-path="url(#pbdfad286d4)" style="fill: #2a78d6; opacity: 0.85"/>
   </g>
   <g id="patch_74">
    <path d="M 118.58929 213.318437 
L 124.987443 213.318437 
L 124.987443 213.318437 
L 118.58929 213.318437 
z
" clip-path="url(#pbdfad286d4)" style="fill: #2a78d6; opacity: 0.85"/>
   </g>
   <g id="patch_75">
    <path d="M 124.987443 213.318437 
L 131.385597 213.318437 
L 131.385597 213.318437 
L 124.987443 213.318437 
z
" clip-path="url(#pbdfad286d4)" style="fill: #2a78d6; opacity: 0.85"/>
   </g>
   <g id="patch_76">
    <path d="M 131.385597 213.318437 
L 137.78375 213.318437 
L 137.78375 213.318437 
L 131.385597 213.318437 
z
" clip-path="url(#pbdfad286d4)" style="fill: #2a78d6; opacity: 0.85"/>
   </g>
   <g id="patch_77">
    <path d="M 137.78375 213.318437 
L 144.181903 213.318437 
L 144.181903 211.803436 
L 137.78375 211.803436 
z
" clip-path="url(#pbdfad286d4)" style="fill: #2a78d6; opacity: 0.85"/>
   </g>
   <g id="patch_78">
    <path d="M 144.181903 213.318437 
L 150.580057 213.318437 
L 150.580057 211.803436 
L 144.181903 211.803436 
z
" clip-path="url(#pbdfad286d4)" style="fill: #2a78d6; opacity: 0.85"/>
   </g>
   <g id="patch_79">
    <path d="M 150.580057 213.318437 
L 156.97821 213.318437 
L 156.97821 213.318437 
L 150.580057 213.318437 
z
" clip-path="url(#pbdfad286d4)" style="fill: #2a78d6; opacity: 0.85"/>
   </g>
   <g id="patch_80">
    <path d="M 156.97821 213.318437 
L 163.376364 213.318437 
L 163.376364 212.560937 
L 156.97821 212.560937 
z
" clip-path="url(#pbdfad286d4)" style="fill: #2a78d6; opacity: 0.85"/>
   </g>
   <g id="patch_81">
    <path d="M 163.376364 213.318437 
L 169.774517 213.318437 
L 169.774517 213.318437 
L 163.376364 213.318437 
z
" clip-path="url(#pbdfad286d4)" style="fill: #2a78d6; opacity: 0.85"/>
   </g>
   <g id="patch_82">
    <path d="M 169.774517 213.318437 
L 176.17267 213.318437 
L 176.17267 213.318437 
L 169.774517 213.318437 
z
" clip-path="url(#pbdfad286d4)" style="fill: #2a78d6; opacity: 0.85"/>
   </g>
   <g id="patch_83">
    <path d="M 176.17267 213.318437 
L 182.570824 213.318437 
L 182.570824 209.530933 
L 176.17267 209.530933 
z
" clip-path="url(#pbdfad286d4)" style="fill: #2a78d6; opacity: 0.85"/>
   </g>
   <g id="patch_84">
    <path d="M 182.570824 213.318437 
L 188.968977 213.318437 
L 188.968977 213.318437 
L 182.570824 213.318437 
z
" clip-path="url(#pbdfad286d4)" style="fill: #2a78d6; opacity: 0.85"/>
   </g>
   <g id="patch_85">
    <path d="M 188.968977 213.318437 
L 195.367131 213.318437 
L 195.367131 210.288434 
L 188.968977 210.288434 
z
" clip-path="url(#pbdfad286d4)" style="fill: #2a78d6; opacity: 0.85"/>
   </g>
   <g id="patch_86">
    <path d="M 195.367131 213.318437 
L 201.765284 213.318437 
L 201.765284 204.985928 
L 195.367131 204.985928 
z
" clip-path="url(#pbdfad286d4)" style="fill: #2a78d6; opacity: 0.85"/>
   </g>
   <g id="patch_87">
    <path d="M 201.765284 213.318437 
L 208.163437 213.318437 
L 208.163437 203.470927 
L 201.765284 203.470927 
z
" clip-path="url(#pbdfad286d4)" style="fill: #2a78d6; opacity: 0.85"/>
   </g>
   <g id="patch_88">
    <path d="M 208.163437 213.318437 
L 214.561591 213.318437 
L 214.561591 180.745902 
L 208.163437 180.745902 
z
" clip-path="url(#pbdfad286d4)" style="fill: #2a78d6; opacity: 0.85"/>
   </g>
   <g id="patch_89">
    <path d="M 214.561591 213.318437 
L 220.959744 213.318437 
L 220.959744 153.475873 
L 214.561591 153.475873 
z
" clip-path="url(#pbdfad286d4)" style="fill: #2a78d6; opacity: 0.85"/>
   </g>
   <g id="patch_90">
    <path d="M 220.959744 213.318437 
L 227.357898 213.318437 
L 227.357898 95.14831 
L 220.959744 95.14831 
z
" clip-path="url(#pbdfad286d4)" style="fill: #2a78d6; opacity: 0.85"/>
   </g>
   <g id="patch_91">
    <path d="M 227.357898 213.318437 
L 233.756051 213.318437 
L 233.756051 64.848277 
L 227.357898 64.848277 
z
" clip-path="url(#pbdfad286d4)" style="fill: #2a78d6; opacity: 0.85"/>
   </g>
   <g id="patch_92">
    <path d="M 233.756051 213.318437 
L 240.154205 213.318437 
L 240.154205 124.690842 
L 233.756051 124.690842 
z
" clip-path="url(#pbdfad286d4)" style="fill: #2a78d6; opacity: 0.85"/>
   </g>
   <g id="patch_93">
    <path d="M 240.154205 213.318437 
L 246.552358 213.318437 
L 246.552358 150.445869 
L 240.154205 150.445869 
z
" clip-path="url(#pbdfad286d4)" style="fill: #2a78d6; opacity: 0.85"/>
   </g>
   <g id="patch_94">
    <path d="M 246.552358 213.318437 
L 252.950511 213.318437 
L 252.950511 182.260904 
L 246.552358 182.260904 
z
" clip-path="url(#pbdfad286d4)" style="fill: #2a78d6; opacity: 0.85"/>
   </g>
   <g id="patch_95">
    <path d="M 252.950511 213.318437 
L 259.348665 213.318437 
L 259.348665 178.4734 
L 252.950511 178.4734 
z
" clip-path="url(#pbdfad286d4)" style="fill: #2a78d6; opacity: 0.85"/>
   </g>
   <g id="patch_96">
    <path d="M 259.348665 213.318437 
L 265.746818 213.318437 
L 265.746818 186.805909 
L 259.348665 186.805909 
z
" clip-path="url(#pbdfad286d4)" style="fill: #2a78d6; opacity: 0.85"/>
   </g>
   <g id="patch_97">
    <path d="M 265.746818 213.318437 
L 272.144972 213.318437 
L 272.144972 201.198424 
L 265.746818 201.198424 
z
" clip-path="url(#pbdfad286d4)" style="fill: #2a78d6; opacity: 0.85"/>
   </g>
   <g id="patch_98">
    <path d="M 272.144972 213.318437 
L 278.543125 213.318437 
L 278.543125 199.683423 
L 272.144972 199.683423 
z
" clip-path="url(#pbdfad286d4)" style="fill: #2a78d6; opacity: 0.85"/>
   </g>
   <g id="patch_99">
    <path d="M 278.543125 213.318437 
L 284.941278 213.318437 
L 284.941278 207.258431 
L 278.543125 207.258431 
z
" clip-path="url(#pbdfad286d4)" style="fill: #2a78d6; opacity: 0.85"/>
   </g>
   <g id="patch_100">
    <path d="M 284.941278 213.318437 
L 291.339432 213.318437 
L 291.339432 200.440924 
L 284.941278 200.440924 
z
" clip-path="url(#pbdfad286d4)" style="fill: #2a78d6; opacity: 0.85"/>
   </g>
   <g id="patch_101">
    <path d="M 291.339432 213.318437 
L 297.737585 213.318437 
L 297.737585 206.50093 
L 291.339432 206.50093 
z
" clip-path="url(#pbdfad286d4)" style="fill: #2a78d6; opacity: 0.85"/>
   </g>
   <g id="patch_102">
    <path d="M 297.737585 213.318437 
L 304.135739 213.318437 
L 304.135739 205.743429 
L 297.737585 205.743429 
z
" clip-path="url(#pbdfad286d4)" style="fill: #2a78d6; opacity: 0.85"/>
   </g>
   <g id="patch_103">
    <path d="M 304.135739 213.318437 
L 310.533892 213.318437 
L 310.533892 206.50093 
L 304.135739 206.50093 
z
" clip-path="url(#pbdfad286d4)" style="fill: #2a78d6; opacity: 0.85"/>
   </g>
   <g id="patch_104">
    <path d="M 310.533892 213.318437 
L 316.932045 213.318437 
L 316.932045 208.773433 
L 310.533892 208.773433 
z
" clip-path="url(#pbdfad286d4)" style="fill: #2a78d6; opacity: 0.85"/>
   </g>
   <g id="patch_105">
    <path d="M 316.932045 213.318437 
L 323.330199 213.318437 
L 323.330199 209.530933 
L 316.932045 209.530933 
z
" clip-path="url(#pbdfad286d4)" style="fill: #2a78d6; opacity: 0.85"/>
   </g>
   <g id="patch_106">
    <path d="M 323.330199 213.318437 
L 329.728352 213.318437 
L 329.728352 211.045935 
L 323.330199 211.045935 
z
" clip-path="url(#pbdfad286d4)" style="fill: #2a78d6; opacity: 0.85"/>
   </g>
   <g id="patch_107">
    <path d="M 329.728352 213.318437 
L 336.126506 213.318437 
L 336.126506 211.045935 
L 329.728352 211.045935 
z
" clip-path="url(#pbdfad286d4)" style="fill: #2a78d6; opacity: 0.85"/>
   </g>
   <g id="patch_108">
    <path d="M 336.126506 213.318437 
L 342.524659 213.318437 
L 342.524659 208.773433 
L 336.126506 208.773433 
z
" clip-path="url(#pbdfad286d4)" style="fill: #2a78d6; opacity: 0.85"/>
   </g>
   <g id="patch_109">
    <path d="M 342.524659 213.318437 
L 348.922812 213.318437 
L 348.922812 211.045935 
L 342.524659 211.045935 
z
" clip-path="url(#pbdfad286d4)" style="fill: #2a78d6; opacity: 0.85"/>
   </g>
   <g id="patch_110">
    <path d="M 348.922812 213.318437 
L 355.320966 213.318437 
L 355.320966 211.803436 
L 348.922812 211.803436 
z
" clip-path="url(#pbdfad286d4)" style="fill: #2a78d6; opacity: 0.85"/>
   </g>
   <g id="patch_111">
    <path d="M 355.320966 213.318437 
L 361.719119 213.318437 
L 361.719119 213.318437 
L 355.320966 213.318437 
z
" clip-path="url(#pbdfad286d4)" style="fill: #2a78d6; opacity: 0.85"/>
   </g>
   <g id="patch_112">
    <path d="M 361.719119 213.318437 
L 368.117273 213.318437 
L 368.117273 211.045935 
L 361.719119 211.045935 
z
" clip-path="url(#pbdfad286d4)" style="fill: #2a78d6; opacity: 0.85"/>
   </g>
   <g id="patch_113">
    <path d="M 368.117273 213.318437 
L 374.515426 213.318437 
L 374.515426 211.803436 
L 368.117273 211.803436 
z
" clip-path="url(#pbdfad286d4)" style="fill: #2a78d6; opacity: 0.85"/>
   </g>
   <g id="patch_114">
    <path d="M 374.515426 213.318437 
L 380.91358 213.318437 
L 380.91358 212.560937 
L 374.515426 212.560937 
z
" clip-path="url(#pbdfad286d4)" style="fill: #2a78d6; opacity: 0.85"/>
   </g>
   <g id="patch_115">
    <path d="M 380.91358 213.318437 
L 387.311733 213.318437 
L 387.311733 213.318437 
L 380.91358 213.318437 
z
" clip-path="url(#pbdfad286d4)" style="fill: #2a78d6; opacity: 0.85"/>
   </g>
   <g id="patch_116">
    <path d="M 387.311733 213.318437 
L 393.709886 213.318437 
L 393.709886 211.045935 
L 387.311733 211.045935 
z
" clip-path="url(#pbdfad286d4)" style="fill: #2a78d6; opacity: 0.85"/>
   </g>
   <g id="patch_117">
    <path d="M 393.709886 213.318437 
L 400.10804 213.318437 
L 400.10804 211.803436 
L 393.709886 211.803436 
z
" clip-path="url(#pbdfad286d4)" style="fill: #2a78d6; opacity: 0.85"/>
   </g>
   <g id="patch_118">
    <path d="M 400.10804 213.318437 
L 406.506193 213.318437 
L 406.506193 212.560937 
L 400.10804 212.560937 
z
" clip-path="url(#pbdfad286d4)" style="fill: #2a78d6; opacity: 0.85"/>
   </g>
   <g id="patch_119">
    <path d="M 406.506193 213.318437 
L 412.904347 213.318437 
L 412.904347 213.318437 
L 406.506193 213.318437 
z
" clip-path="url(#pbdfad286d4)" style="fill: #2a78d6; opacity: 0.85"/>
   </g>
   <g id="patch_120">
    <path d="M 412.904347 213.318437 
L 419.3025 213.318437 
L 419.3025 213.318437 
L 412.904347 213.318437 
z
" clip-path="url(#pbdfad286d4)" style="fill: #2a78d6; opacity: 0.85"/>
   </g>
   <g id="patch_121">
    <path d="M 419.3025 213.318437 
L 425.700653 213.318437 
L 425.700653 211.803436 
L 419.3025 211.803436 
z
" clip-path="url(#pbdfad286d4)" style="fill: #2a78d6; opacity: 0.85"/>
   </g>
   <g id="patch_122">
    <path d="M 425.700653 213.318437 
L 432.098807 213.318437 
L 432.098807 212.560937 
L 425.700653 212.560937 
z
" clip-path="url(#pbdfad286d4)" style="fill: #2a78d6; opacity: 0.85"/>
   </g>
   <g id="patch_123">
    <path d="M 432.098807 213.318437 
L 438.49696 213.318437 
L 438.49696 213.318437 
L 432.098807 213.318437 
z
" clip-path="url(#pbdfad286d4)" style="fill: #2a78d6; opacity: 0.85"/>
   </g>
   <g id="patch_124">
    <path d="M 438.49696 213.318437 
L 444.895114 213.318437 
L 444.895114 212.560937 
L 438.49696 212.560937 
z
" clip-path="url(#pbdfad286d4)" style="fill: #2a78d6; opacity: 0.85"/>
   </g>
   <g id="patch_125">
    <path d="M 444.895114 213.318437 
L 451.293267 213.318437 
L 451.293267 213.318437 
L 444.895114 213.318437 
z
" clip-path="url(#pbdfad286d4)" style="fill: #2a78d6; opacity: 0.85"/>
   </g>
   <g id="patch_126">
    <path d="M 451.293267 213.318437 
L 457.69142 213.318437 
L 457.69142 212.560937 
L 451.293267 212.560937 
z
" clip-path="url(#pbdfad286d4)" style="fill: #2a78d6; opacity: 0.85"/>
   </g>
   <g id="patch_127">
    <path d="M 457.69142 213.318437 
L 464.089574 213.318437 
L 464.089574 212.560937 
L 457.69142 212.560937 
z
" clip-path="url(#pbdfad286d4)" style="fill: #2a78d6; opacity: 0.85"/>
   </g>
   <g id="patch_128">
    <path d="M 464.089574 213.318437 
L 470.487727 213.318437 
L 470.487727 212.560937 
L 464.089574 212.560937 
z
" clip-path="url(#pbdfad286d4)" style="fill: #2a78d6; opacity: 0.85"/>
   </g>
   <g id="patch_129">
    <path d="M 470.487727 213.318437 
L 476.885881 213.318437 
L 476.885881 213.318437 
L 470.487727 213.318437 
z
" clip-path="url(#pbdfad286d4)" style="fill: #2a78d6; opacity: 0.85"/>
   </g>
   <g id="patch_130">
    <path d="M 476.885881 213.318437 
L 483.284034 213.318437 
L 483.284034 213.318437 
L 476.885881 213.318437 
z
" clip-path="url(#pbdfad286d4)" style="fill: #2a78d6; opacity: 0.85"/>
   </g>
   <g id="line2d_31">
    <path d="M 227.357898 213.318437 
L 227.357898 20.798437 
" clip-path="url(#pbdfad286d4)" style="fill: none; stroke: #0b0b0b; stroke-width: 0.8; stroke-linecap: square"/>
   </g>
   <g id="patch_131">
    <path d="M 53.328125 213.318437 
L 53.328125 20.798437 
" style="fill: none; stroke: #52514e; stroke-width: 0.8; stroke-linejoin: miter; stroke-linecap: square"/>
   </g>
   <g id="patch_132">
    <path d="M 53.328125 213.318437 
L 503.758125 213.318437 
" style="fill: none; stroke: #52514e; stroke-width: 0.8; stroke-linejoin: miter; stroke-linecap: square"/>
   </g>
   <g id="text_18">
    <!-- related-false: Hartigan dip p = 0.992 (one mode) -->
    <g style="fill: #0b0b0b" transform="translate(286.281712 36.883109) scale(0.085 -0.085)">
     <defs>
      <path id="DejaVuSans-2d" d="M 313 2009 
L 1997 2009 
L 1997 1497 
L 313 1497 
L 313 2009 
z
" transform="scale(0.015625)"/>
      <path id="DejaVuSans-66" d="M 2375 4863 
L 2375 4384 
L 1825 4384 
Q 1516 4384 1395 4259 
Q 1275 4134 1275 3809 
L 1275 3500 
L 2222 3500 
L 2222 3053 
L 1275 3053 
L 1275 0 
L 697 0 
L 697 3053 
L 147 3053 
L 147 3500 
L 697 3500 
L 697 3744 
Q 697 4328 969 4595 
Q 1241 4863 1831 4863 
L 2375 4863 
z
" transform="scale(0.015625)"/>
      <path id="DejaVuSans-3a" d="M 750 794 
L 1409 794 
L 1409 0 
L 750 0 
L 750 794 
z
M 750 3309 
L 1409 3309 
L 1409 2516 
L 750 2516 
L 750 3309 
z
" transform="scale(0.015625)"/>
      <path id="DejaVuSans-48" d="M 628 4666 
L 1259 4666 
L 1259 2753 
L 3553 2753 
L 3553 4666 
L 4184 4666 
L 4184 0 
L 3553 0 
L 3553 2222 
L 1259 2222 
L 1259 0 
L 628 0 
L 628 4666 
z
" transform="scale(0.015625)"/>
      <path id="DejaVuSans-67" d="M 2906 1791 
Q 2906 2416 2648 2759 
Q 2391 3103 1925 3103 
Q 1463 3103 1205 2759 
Q 947 2416 947 1791 
Q 947 1169 1205 825 
Q 1463 481 1925 481 
Q 2391 481 2648 825 
Q 2906 1169 2906 1791 
z
M 3481 434 
Q 3481 -459 3084 -895 
Q 2688 -1331 1869 -1331 
Q 1566 -1331 1297 -1286 
Q 1028 -1241 775 -1147 
L 775 -588 
Q 1028 -725 1275 -790 
Q 1522 -856 1778 -856 
Q 2344 -856 2625 -561 
Q 2906 -266 2906 331 
L 2906 616 
Q 2728 306 2450 153 
Q 2172 0 1784 0 
Q 1141 0 747 490 
Q 353 981 353 1791 
Q 353 2603 747 3093 
Q 1141 3584 1784 3584 
Q 2172 3584 2450 3431 
Q 2728 3278 2906 2969 
L 2906 3500 
L 3481 3500 
L 3481 434 
z
" transform="scale(0.015625)"/>
      <path id="DejaVuSans-70" d="M 1159 525 
L 1159 -1331 
L 581 -1331 
L 581 3500 
L 1159 3500 
L 1159 2969 
Q 1341 3281 1617 3432 
Q 1894 3584 2278 3584 
Q 2916 3584 3314 3078 
Q 3713 2572 3713 1747 
Q 3713 922 3314 415 
Q 2916 -91 2278 -91 
Q 1894 -91 1617 61 
Q 1341 213 1159 525 
z
M 3116 1747 
Q 3116 2381 2855 2742 
Q 2594 3103 2138 3103 
Q 1681 3103 1420 2742 
Q 1159 2381 1159 1747 
Q 1159 1113 1420 752 
Q 1681 391 2138 391 
Q 2594 391 2855 752 
Q 3116 1113 3116 1747 
z
" transform="scale(0.015625)"/>
      <path id="DejaVuSans-39" d="M 703 97 
L 703 672 
Q 941 559 1184 500 
Q 1428 441 1663 441 
Q 2288 441 2617 861 
Q 2947 1281 2994 2138 
Q 2813 1869 2534 1725 
Q 2256 1581 1919 1581 
Q 1219 1581 811 2004 
Q 403 2428 403 3163 
Q 403 3881 828 4315 
Q 1253 4750 1959 4750 
Q 2769 4750 3195 4129 
Q 3622 3509 3622 2328 
Q 3622 1225 3098 567 
Q 2575 -91 1691 -91 
Q 1453 -91 1209 -44 
Q 966 3 703 97 
z
M 1959 2075 
Q 2384 2075 2632 2365 
Q 2881 2656 2881 3163 
Q 2881 3666 2632 3958 
Q 2384 4250 1959 4250 
Q 1534 4250 1286 3958 
Q 1038 3666 1038 3163 
Q 1038 2656 1286 2365 
Q 1534 2075 1959 2075 
z
" transform="scale(0.015625)"/>
     </defs>
     <use xlink:href="#DejaVuSans-72"/>
     <use xlink:href="#DejaVuSans-65" transform="translate(38.863281 0)"/>
     <use xlink:href="#DejaVuSans-6c" transform="translate(100.386719 0)"/>
     <use xlink:href="#DejaVuSans-61" transform="translate(128.169922 0)"/>
     <use xlink:href="#DejaVuSans-74" transform="translate(189.449219 0)"/>
     <use xlink:href="#DejaVuSans-65" transform="translate(228.658203 0)"/>
     <use xlink:href="#DejaVuSans-64" transform="translate(290.181641 0)"/>
     <use xlink:href="#DejaVuSans-2d" transform="translate(353.658203 0)"/>
     <use xlink:href="#DejaVuSans-66" transform="translate(389.742188 0)"/>
     <use xlink:href="#DejaVuSans-61" transform="translate(424.947266 0)"/>
     <use xlink:href="#DejaVuSans-6c" transform="translate(486.226562 0)"/>
     <use xlink:href="#DejaVuSans-73" transform="translate(514.009766 0)"/>
     <use xlink:href="#DejaVuSans-65" transform="translate(566.109375 0)"/>
     <use xlink:href="#DejaVuSans-3a" transform="translate(627.632812 0)"/>
     <use xlink:href="#DejaVuSans-20" transform="translate(661.324219 0)"/>
     <use xlink:href="#DejaVuSans-48" transform="translate(693.111328 0)"/>
     <use xlink:href="#DejaVuSans-61" transform="translate(768.306641 0)"/>
     <use xlink:href="#DejaVuSans-72" transform="translate(829.585938 0)"/>
     <use xlink:href="#DejaVuSans-74" transform="translate(870.699219 0)"/>
     <use xlink:href="#DejaVuSans-69" transform="translate(909.908203 0)"/>
     <use xlink:href="#DejaVuSans-67" transform="translate(937.691406 0)"/>
     <use xlink:href="#DejaVuSans-61" transform="translate(1001.167969 0)"/>
     <use xlink:href="#DejaVuSans-6e" transform="translate(1062.447266 0)"/>
     <use xlink:href="#DejaVuSans-20" transform="translate(1125.826172 0)"/>
     <use xlink:href="#DejaVuSans-64" transform="translate(1157.613281 0)"/>
     <use xlink:href="#DejaVuSans-69" transform="translate(1221.089844 0)"/>
     <use xlink:href="#DejaVuSans-70" transform="translate(1248.873047 0)"/>
     <use xlink:href="#DejaVuSans-20" transform="translate(1312.349609 0)"/>
     <use xlink:href="#DejaVuSans-70" transform="translate(1344.136719 0)"/>
     <use xlink:href="#DejaVuSans-20" transform="translate(1407.613281 0)"/>
     <use xlink:href="#DejaVuSans-3d" transform="translate(1439.400391 0)"/>
     <use xlink:href="#DejaVuSans-20" transform="translate(1523.189453 0)"/>
     <use xlink:href="#DejaVuSans-30" transform="translate(1554.976562 0)"/>
     <use xlink:href="#DejaVuSans-2e" transform="translate(1618.599609 0)"/>
     <use xlink:href="#DejaVuSans-39" transform="translate(1650.386719 0)"/>
     <use xlink:href="#DejaVuSans-39" transform="translate(1714.009766 0)"/>
     <use xlink:href="#DejaVuSans-32" transform="translate(1777.632812 0)"/>
     <use xlink:href="#DejaVuSans-20" transform="translate(1841.255859 0)"/>
     <use xlink:href="#DejaVuSans-28" transform="translate(1873.042969 0)"/>
     <use xlink:href="#DejaVuSans-6f" transform="translate(1912.056641 0)"/>
     <use xlink:href="#DejaVuSans-6e" transform="translate(1973.238281 0)"/>
     <use xlink:href="#DejaVuSans-65" transform="translate(2036.617188 0)"/>
     <use xlink:href="#DejaVuSans-20" transform="translate(2098.140625 0)"/>
     <use xlink:href="#DejaVuSans-6d" transform="translate(2129.927734 0)"/>
     <use xlink:href="#DejaVuSans-6f" transform="translate(2227.339844 0)"/>
     <use xlink:href="#DejaVuSans-64" transform="translate(2288.521484 0)"/>
     <use xlink:href="#DejaVuSans-65" transform="translate(2351.998047 0)"/>
     <use xlink:href="#DejaVuSans-29" transform="translate(2413.521484 0)"/>
    </g>
    <!-- skew 2.63   ΔBIC(2v1) +843 — fires on skew alone -->
    <g style="fill: #0b0b0b" transform="translate(279.655697 46.40125) scale(0.085 -0.085)">
     <defs>
      <path id="DejaVuSans-6b" d="M 581 4863 
L 1159 4863 
L 1159 1991 
L 2875 3500 
L 3609 3500 
L 1753 1863 
L 3688 0 
L 2938 0 
L 1159 1709 
L 1159 0 
L 581 0 
L 581 4863 
z
" transform="scale(0.015625)"/>
      <path id="DejaVuSans-33" d="M 2597 2516 
Q 3050 2419 3304 2112 
Q 3559 1806 3559 1356 
Q 3559 666 3084 287 
Q 2609 -91 1734 -91 
Q 1441 -91 1130 -33 
Q 819 25 488 141 
L 488 750 
Q 750 597 1062 519 
Q 1375 441 1716 441 
Q 2309 441 2620 675 
Q 2931 909 2931 1356 
Q 2931 1769 2642 2001 
Q 2353 2234 1838 2234 
L 1294 2234 
L 1294 2753 
L 1863 2753 
Q 2328 2753 2575 2939 
Q 2822 3125 2822 3475 
Q 2822 3834 2567 4026 
Q 2313 4219 1838 4219 
Q 1578 4219 1281 4162 
Q 984 4106 628 3988 
L 628 4550 
Q 988 4650 1302 4700 
Q 1616 4750 1894 4750 
Q 2613 4750 3031 4423 
Q 3450 4097 3450 3541 
Q 3450 3153 3228 2886 
Q 3006 2619 2597 2516 
z
" transform="scale(0.015625)"/>
      <path id="DejaVuSans-42" d="M 1259 2228 
L 1259 519 
L 2272 519 
Q 2781 519 3026 730 
Q 3272 941 3272 1375 
Q 3272 1813 3026 2020 
Q 2781 2228 2272 2228 
L 1259 2228 
z
M 1259 4147 
L 1259 2741 
L 2194 2741 
Q 2656 2741 2882 2914 
Q 3109 3088 3109 3444 
Q 3109 3797 2882 3972 
Q 2656 4147 2194 4147 
L 1259 4147 
z
M 628 4666 
L 2241 4666 
Q 2963 4666 3353 4366 
Q 3744 4066 3744 3513 
Q 3744 3084 3544 2831 
Q 3344 2578 2956 2516 
Q 3422 2416 3680 2098 
Q 3938 1781 3938 1306 
Q 3938 681 3513 340 
Q 3088 0 2303 0 
L 628 0 
L 628 4666 
z
" transform="scale(0.015625)"/>
      <path id="DejaVuSans-49" d="M 628 4666 
L 1259 4666 
L 1259 0 
L 628 0 
L 628 4666 
z
" transform="scale(0.015625)"/>
      <path id="DejaVuSans-43" d="M 4122 4306 
L 4122 3641 
Q 3803 3938 3442 4084 
Q 3081 4231 2675 4231 
Q 1875 4231 1450 3742 
Q 1025 3253 1025 2328 
Q 1025 1406 1450 917 
Q 1875 428 2675 428 
Q 3081 428 3442 575 
Q 3803 722 4122 1019 
L 4122 359 
Q 3791 134 3420 21 
Q 3050 -91 2638 -91 
Q 1578 -91 968 557 
Q 359 1206 359 2328 
Q 359 3453 968 4101 
Q 1578 4750 2638 4750 
Q 3056 4750 3426 4639 
Q 3797 4528 4122 4306 
z
" transform="scale(0.015625)"/>
      <path id="DejaVuSans-76" d="M 191 3500 
L 800 3500 
L 1894 563 
L 2988 3500 
L 3597 3500 
L 2284 0 
L 1503 0 
L 191 3500 
z
" transform="scale(0.015625)"/>
      <path id="DejaVuSans-2b" d="M 2944 4013 
L 2944 2272 
L 4684 2272 
L 4684 1741 
L 2944 1741 
L 2944 0 
L 2419 0 
L 2419 1741 
L 678 1741 
L 678 2272 
L 2419 2272 
L 2419 4013 
L 2944 4013 
z
" transform="scale(0.015625)"/>
      <path id="DejaVuSans-2014" d="M 313 1978 
L 6088 1978 
L 6088 1528 
L 313 1528 
L 313 1978 
z
" transform="scale(0.015625)"/>
     </defs>
     <use xlink:href="#DejaVuSans-73"/>
     <use xlink:href="#DejaVuSans-6b" transform="translate(52.099609 0)"/>
     <use xlink:href="#DejaVuSans-65" transform="translate(106.384766 0)"/>
     <use xlink:href="#DejaVuSans-77" transform="translate(167.908203 0)"/>
     <use xlink:href="#DejaVuSans-20" transform="translate(249.695312 0)"/>
     <use xlink:href="#DejaVuSans-32" transform="translate(281.482422 0)"/>
     <use xlink:href="#DejaVuSans-2e" transform="translate(345.105469 0)"/>
     <use xlink:href="#DejaVuSans-36" transform="translate(376.892578 0)"/>
     <use xlink:href="#DejaVuSans-33" transform="translate(440.515625 0)"/>
     <use xlink:href="#DejaVuSans-20" transform="translate(504.138672 0)"/>
     <use xlink:href="#DejaVuSans-20" transform="translate(535.925781 0)"/>
     <use xlink:href="#DejaVuSans-20" transform="translate(567.712891 0)"/>
     <use xlink:href="#DejaVuSans-394" transform="translate(599.5 0)"/>
     <use xlink:href="#DejaVuSans-42" transform="translate(667.908203 0)"/>
     <use xlink:href="#DejaVuSans-49" transform="translate(736.511719 0)"/>
     <use xlink:href="#DejaVuSans-43" transform="translate(766.003906 0)"/>
     <use xlink:href="#DejaVuSans-28" transform="translate(835.828125 0)"/>
     <use xlink:href="#DejaVuSans-32" transform="translate(874.841797 0)"/>
     <use xlink:href="#DejaVuSans-76" transform="translate(938.464844 0)"/>
     <use xlink:href="#DejaVuSans-31" transform="translate(997.644531 0)"/>
     <use xlink:href="#DejaVuSans-29" transform="translate(1061.267578 0)"/>
     <use xlink:href="#DejaVuSans-20" transform="translate(1100.28125 0)"/>
     <use xlink:href="#DejaVuSans-2b" transform="translate(1132.068359 0)"/>
     <use xlink:href="#DejaVuSans-38" transform="translate(1215.857422 0)"/>
     <use xlink:href="#DejaVuSans-34" transform="translate(1279.480469 0)"/>
     <use xlink:href="#DejaVuSans-33" transform="translate(1343.103516 0)"/>
     <use xlink:href="#DejaVuSans-20" transform="translate(1406.726562 0)"/>
     <use xlink:href="#DejaVuSans-2014" transform="translate(1438.513672 0)"/>
     <use xlink:href="#DejaVuSans-20" transform="translate(1538.513672 0)"/>
     <use xlink:href="#DejaVuSans-66" transform="translate(1570.300781 0)"/>
     <use xlink:href="#DejaVuSans-69" transform="translate(1605.505859 0)"/>
     <use xlink:href="#DejaVuSans-72" transform="translate(1633.289062 0)"/>
     <use xlink:href="#DejaVuSans-65" transform="translate(1672.152344 0)"/>
     <use xlink:href="#DejaVuSans-73" transform="translate(1733.675781 0)"/>
     <use xlink:href="#DejaVuSans-20" transform="translate(1785.775391 0)"/>
     <use xlink:href="#DejaVuSans-6f" transform="translate(1817.5625 0)"/>
     <use xlink:href="#DejaVuSans-6e" transform="translate(1878.744141 0)"/>
     <use xlink:href="#DejaVuSans-20" transform="translate(1942.123047 0)"/>
     <use xlink:href="#DejaVuSans-73" transform="translate(1973.910156 0)"/>
     <use xlink:href="#DejaVuSans-6b" transform="translate(2026.009766 0)"/>
     <use xlink:href="#DejaVuSans-65" transform="translate(2080.294922 0)"/>
     <use xlink:href="#DejaVuSans-77" transform="translate(2141.818359 0)"/>
     <use xlink:href="#DejaVuSans-20" transform="translate(2223.605469 0)"/>
     <use xlink:href="#DejaVuSans-61" transform="translate(2255.392578 0)"/>
     <use xlink:href="#DejaVuSans-6c" transform="translate(2316.671875 0)"/>
     <use xlink:href="#DejaVuSans-6f" transform="translate(2344.455078 0)"/>
     <use xlink:href="#DejaVuSans-6e" transform="translate(2405.636719 0)"/>
     <use xlink:href="#DejaVuSans-65" transform="translate(2469.015625 0)"/>
    </g>
    <!-- (power of the dip test: G3) -->
    <g style="fill: #0b0b0b" transform="translate(381.860228 55.919391) scale(0.085 -0.085)">
     <defs>
      <path id="DejaVuSans-68" d="M 3513 2113 
L 3513 0 
L 2938 0 
L 2938 2094 
Q 2938 2591 2744 2837 
Q 2550 3084 2163 3084 
Q 1697 3084 1428 2787 
Q 1159 2491 1159 1978 
L 1159 0 
L 581 0 
L 581 4863 
L 1159 4863 
L 1159 2956 
Q 1366 3272 1645 3428 
Q 1925 3584 2291 3584 
Q 2894 3584 3203 3211 
Q 3513 2838 3513 2113 
z
" transform="scale(0.015625)"/>
      <path id="DejaVuSans-47" d="M 3809 666 
L 3809 1919 
L 2778 1919 
L 2778 2438 
L 4434 2438 
L 4434 434 
Q 4069 175 3628 42 
Q 3188 -91 2688 -91 
Q 1594 -91 976 548 
Q 359 1188 359 2328 
Q 359 3472 976 4111 
Q 1594 4750 2688 4750 
Q 3144 4750 3555 4637 
Q 3966 4525 4313 4306 
L 4313 3634 
Q 3963 3931 3569 4081 
Q 3175 4231 2741 4231 
Q 1884 4231 1454 3753 
Q 1025 3275 1025 2328 
Q 1025 1384 1454 906 
Q 1884 428 2741 428 
Q 3075 428 3337 486 
Q 3600 544 3809 666 
z
" transform="scale(0.015625)"/>
     </defs>
     <use xlink:href="#DejaVuSans-28"/>
     <use xlink:href="#DejaVuSans-70" transform="translate(39.013672 0)"/>
     <use xlink:href="#DejaVuSans-6f" transform="translate(102.490234 0)"/>
     <use xlink:href="#DejaVuSans-77" transform="translate(163.671875 0)"/>
     <use xlink:href="#DejaVuSans-65" transform="translate(245.458984 0)"/>
     <use xlink:href="#DejaVuSans-72" transform="translate(306.982422 0)"/>
     <use xlink:href="#DejaVuSans-20" transform="translate(348.095703 0)"/>
     <use xlink:href="#DejaVuSans-6f" transform="translate(379.882812 0)"/>
     <use xlink:href="#DejaVuSans-66" transform="translate(441.064453 0)"/>
     <use xlink:href="#DejaVuSans-20" transform="translate(476.269531 0)"/>
     <use xlink:href="#DejaVuSans-74" transform="translate(508.056641 0)"/>
     <use xlink:href="#DejaVuSans-68" transform="translate(547.265625 0)"/>
     <use xlink:href="#DejaVuSans-65" transform="translate(610.644531 0)"/>
     <use xlink:href="#DejaVuSans-20" transform="translate(672.167969 0)"/>
     <use xlink:href="#DejaVuSans-64" transform="translate(703.955078 0)"/>
     <use xlink:href="#DejaVuSans-69" transform="translate(767.431641 0)"/>
     <use xlink:href="#DejaVuSans-70" transform="translate(795.214844 0)"/>
     <use xlink:href="#DejaVuSans-20" transform="translate(858.691406 0)"/>
     <use xlink:href="#DejaVuSans-74" transform="translate(890.478516 0)"/>
     <use xlink:href="#DejaVuSans-65" transform="translate(929.6875 0)"/>
     <use xlink:href="#DejaVuSans-73" transform="translate(991.210938 0)"/>
     <use xlink:href="#DejaVuSans-74" transform="translate(1043.310547 0)"/>
     <use xlink:href="#DejaVuSans-3a" transform="translate(1082.519531 0)"/>
     <use xlink:href="#DejaVuSans-20" transform="translate(1116.210938 0)"/>
     <use xlink:href="#DejaVuSans-47" transform="translate(1147.998047 0)"/>
     <use xlink:href="#DejaVuSans-33" transform="translate(1225.488281 0)"/>
     <use xlink:href="#DejaVuSans-29" transform="translate(1289.111328 0)"/>
    </g>
   </g>
   <g id="text_19">
    <!-- G2  H1: related-false Δ is one skewed hump, not a mixture -->
    <g transform="translate(53.328125 14.798437) scale(0.1 -0.1)">
     <defs>
      <path id="DejaVuSans-2c" d="M 750 794 
L 1409 794 
L 1409 256 
L 897 -744 
L 494 -744 
L 750 256 
L 750 794 
z
" transform="scale(0.015625)"/>
      <path id="DejaVuSans-78" d="M 3513 3500 
L 2247 1797 
L 3578 0 
L 2900 0 
L 1881 1375 
L 863 0 
L 184 0 
L 1544 1831 
L 300 3500 
L 978 3500 
L 1906 2253 
L 2834 3500 
L 3513 3500 
z
" transform="scale(0.015625)"/>
     </defs>
     <use xlink:href="#DejaVuSans-47"/>
     <use xlink:href="#DejaVuSans-32" transform="translate(77.490234 0)"/>
     <use xlink:href="#DejaVuSans-20" transform="translate(141.113281 0)"/>
     <use xlink:href="#DejaVuSans-20" transform="translate(172.900391 0)"/>
     <use xlink:href="#DejaVuSans-48" transform="translate(204.6875 0)"/>
     <use xlink:href="#DejaVuSans-31" transform="translate(279.882812 0)"/>
     <use xlink:href="#DejaVuSans-3a" transform="translate(343.505859 0)"/>
     <use xlink:href="#DejaVuSans-20" transform="translate(377.197266 0)"/>
     <use xlink:href="#DejaVuSans-72" transform="translate(408.984375 0)"/>
     <use xlink:href="#DejaVuSans-65" transform="translate(447.847656 0)"/>
     <use xlink:href="#DejaVuSans-6c" transform="translate(509.371094 0)"/>
     <use xlink:href="#DejaVuSans-61" transform="translate(537.154297 0)"/>
     <use xlink:href="#DejaVuSans-74" transform="translate(598.433594 0)"/>
     <use xlink:href="#DejaVuSans-65" transform="translate(637.642578 0)"/>
     <use xlink:href="#DejaVuSans-64" transform="translate(699.166016 0)"/>
     <use xlink:href="#DejaVuSans-2d" transform="translate(762.642578 0)"/>
     <use xlink:href="#DejaVuSans-66" transform="translate(798.726562 0)"/>
     <use xlink:href="#DejaVuSans-61" transform="translate(833.931641 0)"/>
     <use xlink:href="#DejaVuSans-6c" transform="translate(895.210938 0)"/>
     <use xlink:href="#DejaVuSans-73" transform="translate(922.994141 0)"/>
     <use xlink:href="#DejaVuSans-65" transform="translate(975.09375 0)"/>
     <use xlink:href="#DejaVuSans-20" transform="translate(1036.617188 0)"/>
     <use xlink:href="#DejaVuSans-394" transform="translate(1068.404297 0)"/>
     <use xlink:href="#DejaVuSans-20" transform="translate(1136.8125 0)"/>
     <use xlink:href="#DejaVuSans-69" transform="translate(1168.599609 0)"/>
     <use xlink:href="#DejaVuSans-73" transform="translate(1196.382812 0)"/>
     <use xlink:href="#DejaVuSans-20" transform="translate(1248.482422 0)"/>
     <use xlink:href="#DejaVuSans-6f" transform="translate(1280.269531 0)"/>
     <use xlink:href="#DejaVuSans-6e" transform="translate(1341.451172 0)"/>
     <use xlink:href="#DejaVuSans-65" transform="translate(1404.830078 0)"/>
     <use xlink:href="#DejaVuSans-20" transform="translate(1466.353516 0)"/>
     <use xlink:href="#DejaVuSans-73" transform="translate(1498.140625 0)"/>
     <use xlink:href="#DejaVuSans-6b" transform="translate(1550.240234 0)"/>
     <use xlink:href="#DejaVuSans-65" transform="translate(1604.525391 0)"/>
     <use xlink:href="#DejaVuSans-77" transform="translate(1666.048828 0)"/>
     <use xlink:href="#DejaVuSans-65" transform="translate(1747.835938 0)"/>
     <use xlink:href="#DejaVuSans-64" transform="translate(1809.359375 0)"/>
     <use xlink:href="#DejaVuSans-20" transform="translate(1872.835938 0)"/>
     <use xlink:href="#DejaVuSans-68" transform="translate(1904.623047 0)"/>
     <use xlink:href="#DejaVuSans-75" transform="translate(1968.001953 0)"/>
     <use xlink:href="#DejaVuSans-6d" transform="translate(2031.380859 0)"/>
     <use xlink:href="#DejaVuSans-70" transform="translate(2128.792969 0)"/>
     <use xlink:href="#DejaVuSans-2c" transform="translate(2192.269531 0)"/>
     <use xlink:href="#DejaVuSans-20" transform="translate(2224.056641 0)"/>
     <use xlink:href="#DejaVuSans-6e" transform="translate(2255.84375 0)"/>
     <use xlink:href="#DejaVuSans-6f" transform="translate(2319.222656 0)"/>
     <use xlink:href="#DejaVuSans-74" transform="translate(2380.404297 0)"/>
     <use xlink:href="#DejaVuSans-20" transform="translate(2419.613281 0)"/>
     <use xlink:href="#DejaVuSans-61" transform="translate(2451.400391 0)"/>
     <use xlink:href="#DejaVuSans-20" transform="translate(2512.679688 0)"/>
     <use xlink:href="#DejaVuSans-6d" transform="translate(2544.466797 0)"/>
     <use xlink:href="#DejaVuSans-69" transform="translate(2641.878906 0)"/>
     <use xlink:href="#DejaVuSans-78" transform="translate(2669.662109 0)"/>
     <use xlink:href="#DejaVuSans-74" transform="translate(2728.841797 0)"/>
     <use xlink:href="#DejaVuSans-75" transform="translate(2768.050781 0)"/>
     <use xlink:href="#DejaVuSans-72" transform="translate(2831.429688 0)"/>
     <use xlink:href="#DejaVuSans-65" transform="translate(2870.292969 0)"/>
    </g>
   </g>
   <g id="legend_1">
    <g id="patch_133">
     <path d="M 313.003125 113.394687 
L 329.003125 113.394687 
L 329.003125 107.794687 
L 313.003125 107.794687 
z
" style="fill: #8a8987; opacity: 0.55"/>
    </g>
    <g id="text_20">
     <!-- true claims (n=1068) — for scale -->
     <g transform="translate(335.403125 113.394687) scale(0.08 -0.08)">
      <use xlink:href="#DejaVuSans-74"/>
      <use xlink:href="#DejaVuSans-72" transform="translate(39.208984 0)"/>
      <use xlink:href="#DejaVuSans-75" transform="translate(80.322266 0)"/>
      <use xlink:href="#DejaVuSans-65" transform="translate(143.701172 0)"/>
      <use xlink:href="#DejaVuSans-20" transform="translate(205.224609 0)"/>
      <use xlink:href="#DejaVuSans-63" transform="translate(237.011719 0)"/>
      <use xlink:href="#DejaVuSans-6c" transform="translate(291.992188 0)"/>
      <use xlink:href="#DejaVuSans-61" transform="translate(319.775391 0)"/>
      <use xlink:href="#DejaVuSans-69" transform="translate(381.054688 0)"/>
      <use xlink:href="#DejaVuSans-6d" transform="translate(408.837891 0)"/>
      <use xlink:href="#DejaVuSans-73" transform="translate(506.25 0)"/>
      <use xlink:href="#DejaVuSans-20" transform="translate(558.349609 0)"/>
      <use xlink:href="#DejaVuSans-28" transform="translate(590.136719 0)"/>
      <use xlink:href="#DejaVuSans-6e" transform="translate(629.150391 0)"/>
      <use xlink:href="#DejaVuSans-3d" transform="translate(692.529297 0)"/>
      <use xlink:href="#DejaVuSans-31" transform="translate(776.318359 0)"/>
      <use xlink:href="#DejaVuSans-30" transform="translate(839.941406 0)"/>
      <use xlink:href="#DejaVuSans-36" transform="translate(903.564453 0)"/>
      <use xlink:href="#DejaVuSans-38" transform="translate(967.1875 0)"/>
      <use xlink:href="#DejaVuSans-29" transform="translate(1030.810547 0)"/>
      <use xlink:href="#DejaVuSans-20" transform="translate(1069.824219 0)"/>
      <use xlink:href="#DejaVuSans-2014" transform="translate(1101.611328 0)"/>
      <use xlink:href="#DejaVuSans-20" transform="translate(1201.611328 0)"/>
      <use xlink:href="#DejaVuSans-66" transform="translate(1233.398438 0)"/>
      <use xlink:href="#DejaVuSans-6f" transform="translate(1268.603516 0)"/>
      <use xlink:href="#DejaVuSans-72" transform="translate(1329.785156 0)"/>
      <use xlink:href="#DejaVuSans-20" transform="translate(1370.898438 0)"/>
      <use xlink:href="#DejaVuSans-73" transform="translate(1402.685547 0)"/>
      <use xlink:href="#DejaVuSans-63" transform="translate(1454.785156 0)"/>
      <use xlink:href="#DejaVuSans-61" transform="translate(1509.765625 0)"/>
      <use xlink:href="#DejaVuSans-6c" transform="translate(1571.044922 0)"/>
      <use xlink:href="#DejaVuSans-65" transform="translate(1598.828125 0)"/>
     </g>
    </g>
    <g id="patch_134">
     <path d="M 313.003125 125.137187 
L 329.003125 125.137187 
L 329.003125 119.537187 
L 313.003125 119.537187 
z
" style="fill: #2a78d6; opacity: 0.85"/>
    </g>
    <g id="text_21">
     <!-- related-false claims (n=975) — H1's cell -->
     <g transform="translate(335.403125 125.137187) scale(0.08 -0.08)">
      <defs>
       <path id="DejaVuSans-37" d="M 525 4666 
L 3525 4666 
L 3525 4397 
L 1831 0 
L 1172 0 
L 2766 4134 
L 525 4134 
L 525 4666 
z
" transform="scale(0.015625)"/>
       <path id="DejaVuSans-35" d="M 691 4666 
L 3169 4666 
L 3169 4134 
L 1269 4134 
L 1269 2991 
Q 1406 3038 1543 3061 
Q 1681 3084 1819 3084 
Q 2600 3084 3056 2656 
Q 3513 2228 3513 1497 
Q 3513 744 3044 326 
Q 2575 -91 1722 -91 
Q 1428 -91 1123 -41 
Q 819 9 494 109 
L 494 744 
Q 775 591 1075 516 
Q 1375 441 1709 441 
Q 2250 441 2565 725 
Q 2881 1009 2881 1497 
Q 2881 1984 2565 2268 
Q 2250 2553 1709 2553 
Q 1456 2553 1204 2497 
Q 953 2441 691 2322 
L 691 4666 
z
" transform="scale(0.015625)"/>
       <path id="DejaVuSans-27" d="M 1147 4666 
L 1147 2931 
L 616 2931 
L 616 4666 
L 1147 4666 
z
" transform="scale(0.015625)"/>
      </defs>
      <use xlink:href="#DejaVuSans-72"/>
      <use xlink:href="#DejaVuSans-65" transform="translate(38.863281 0)"/>
      <use xlink:href="#DejaVuSans-6c" transform="translate(100.386719 0)"/>
      <use xlink:href="#DejaVuSans-61" transform="translate(128.169922 0)"/>
      <use xlink:href="#DejaVuSans-74" transform="translate(189.449219 0)"/>
      <use xlink:href="#DejaVuSans-65" transform="translate(228.658203 0)"/>
      <use xlink:href="#DejaVuSans-64" transform="translate(290.181641 0)"/>
      <use xlink:href="#DejaVuSans-2d" transform="translate(353.658203 0)"/>
      <use xlink:href="#DejaVuSans-66" transform="translate(389.742188 0)"/>
      <use xlink:href="#DejaVuSans-61" transform="translate(424.947266 0)"/>
      <use xlink:href="#DejaVuSans-6c" transform="translate(486.226562 0)"/>
      <use xlink:href="#DejaVuSans-73" transform="translate(514.009766 0)"/>
      <use xlink:href="#DejaVuSans-65" transform="translate(566.109375 0)"/>
      <use xlink:href="#DejaVuSans-20" transform="translate(627.632812 0)"/>
      <use xlink:href="#DejaVuSans-63" transform="translate(659.419922 0)"/>
      <use xlink:href="#DejaVuSans-6c" transform="translate(714.400391 0)"/>
      <use xlink:href="#DejaVuSans-61" transform="translate(742.183594 0)"/>
      <use xlink:href="#DejaVuSans-69" transform="translate(803.462891 0)"/>
      <use xlink:href="#DejaVuSans-6d" transform="translate(831.246094 0)"/>
      <use xlink:href="#DejaVuSans-73" transform="translate(928.658203 0)"/>
      <use xlink:href="#DejaVuSans-20" transform="translate(980.757812 0)"/>
      <use xlink:href="#DejaVuSans-28" transform="translate(1012.544922 0)"/>
      <use xlink:href="#DejaVuSans-6e" transform="translate(1051.558594 0)"/>
      <use xlink:href="#DejaVuSans-3d" transform="translate(1114.9375 0)"/>
      <use xlink:href="#DejaVuSans-39" transform="translate(1198.726562 0)"/>
      <use xlink:href="#DejaVuSans-37" transform="translate(1262.349609 0)"/>
      <use xlink:href="#DejaVuSans-35" transform="translate(1325.972656 0)"/>
      <use xlink:href="#DejaVuSans-29" transform="translate(1389.595703 0)"/>
      <use xlink:href="#DejaVuSans-20" transform="translate(1428.609375 0)"/>
      <use xlink:href="#DejaVuSans-2014" transform="translate(1460.396484 0)"/>
      <use xlink:href="#DejaVuSans-20" transform="translate(1560.396484 0)"/>
      <use xlink:href="#DejaVuSans-48" transform="translate(1592.183594 0)"/>
      <use xlink:href="#DejaVuSans-31" transform="translate(1667.378906 0)"/>
      <use xlink:href="#DejaVuSans-27" transform="translate(1731.001953 0)"/>
      <use xlink:href="#DejaVuSans-73" transform="translate(1758.492188 0)"/>
      <use xlink:href="#DejaVuSans-20" transform="translate(1810.591797 0)"/>
      <use xlink:href="#DejaVuSans-63" transform="translate(1842.378906 0)"/>
      <use xlink:href="#DejaVuSans-65" transform="translate(1897.359375 0)"/>
      <use xlink:href="#DejaVuSans-6c" transform="translate(1958.882812 0)"/>
      <use xlink:href="#DejaVuSans-6c" transform="translate(1986.666016 0)"/>
     </g>
    </g>
   </g>
  </g>
 </g>
 <defs>
  <clipPath id="pbdfad286d4">
   <rect x="53.328125" y="20.798437" width="450.43" height="192.52"/>
  </clipPath>
 </defs>
</svg>
